{"asset":{"version":"2.0","generator":"Blockbench 4.12.6 glTF exporter"},"scenes":[{"nodes":[1],"name":"blockbench_export"}],"scene":0,"nodes":[{"translation":[1.1942790506536128e-15,0.2097888980085494,0],"name":"cube","mesh":0},{"children":[0]}],"bufferViews":[{"buffer":0,"byteOffset":0,"byteLength":14400,"target":34962,"byteStride":12},{"buffer":0,"byteOffset":14400,"byteLength":14400,"target":34962,"byteStride":12},{"buffer":0,"byteOffset":28800,"byteLength":9600,"target":34962,"byteStride":8},{"buffer":0,"byteOffset":38400,"byteLength":144,"target":34963},{"buffer":0,"byteOffset":38544,"byteLength":144,"target":34963},{"buffer":0,"byteOffset":38688,"byteLength":144,"target":34963},{"buffer":0,"byteOffset":38832,"byteLength":3168,"target":34963}],"buffers":[{"byteLength":42000,"uri":"data:application/octet-stream;base64,"}],"accessors":[{"bufferView":0,"componentType":5126,"count":1200,"max":[0.046281248331069946,0.09075242280960083,0.3086608946323395],"min":[-0.047468751668930054,-0.20978890359401703,-0.2850894331932068],"type":"VEC3"},{"bufferView":1,"componentType":5126,"count":1200,"max":[1,1,1],"min":[-1,-1,-1],"type":"VEC3"},{"bufferView":2,"componentType":5126,"count":1200,"max":[1,1],"min":[0,0],"type":"VEC2"},{"bufferView":3,"componentType":5123,"count":72,"max":[47],"min":[0],"type":"SCALAR"},{"bufferView":4,"componentType":5123,"count":72,"max":[95],"min":[48],"type":"SCALAR"},{"bufferView":5,"componentType":5123,"count":72,"max":[143],"min":[96],"type":"SCALAR"},{"bufferView":6,"componentType":5123,"count":1584,"max":[1199],"min":[144],"type":"SCALAR"}],"materials":[{"pbrMetallicRoughness":{"metallicFactor":0,"roughnessFactor":1,"baseColorTexture":{"index":0}},"alphaMode":"MASK","alphaCutoff":0.05,"doubleSided":true},{"pbrMetallicRoughness":{"metallicFactor":0,"roughnessFactor":1,"baseColorTexture":{"index":1}},"alphaMode":"MASK","alphaCutoff":0.05,"doubleSided":true}],"textures":[{"sampler":0,"source":0,"name":"oak_log.png"},{"sampler":1,"source":1,"name":"gray13.png"}],"samplers":[{"magFilter":9728,"minFilter":9728,"wrapS":33071,"wrapT":33071},{"magFilter":9728,"minFilter":9728,"wrapS":33071,"wrapT":33071}],"images":[{"mimeType":"image/png","uri":"data:image/png;base64,"},{"mimeType":"image/png","uri":"data:image/png;base64,"}],"meshes":[{"primitives":[{"mode":4,"attributes":{"POSITION":0,"NORMAL":1,"TEXCOORD_0":2},"indices":3,"material":0},{"mode":4,"attributes":{"POSITION":0,"NORMAL":1,"TEXCOORD_0":2},"indices":4,"material":1},{"mode":4,"attributes":{"POSITION":0,"NORMAL":1,"TEXCOORD_0":2},"indices":5,"material":0},{"mode":4,"attributes":{"POSITION":0,"NORMAL":1,"TEXCOORD_0":2},"indices":6,"material":1}]}]}