{"asset":{"version":"2.0","generator":"Blockbench 4.12.6 glTF exporter"},"scenes":[{"nodes":[1],"name":"blockbench_export"}],"scene":0,"nodes":[{"name":"cube","mesh":0},{"children":[0]}],"bufferViews":[{"buffer":0,"byteOffset":0,"byteLength":114336,"target":34962,"byteStride":12},{"buffer":0,"byteOffset":114336,"byteLength":114336,"target":34962,"byteStride":12},{"buffer":0,"byteOffset":228672,"byteLength":76224,"target":34962,"byteStride":8},{"buffer":0,"byteOffset":304896,"byteLength":72,"target":34963},{"buffer":0,"byteOffset":304968,"byteLength":600,"target":34963},{"buffer":0,"byteOffset":305568,"byteLength":12,"target":34963},{"buffer":0,"byteOffset":305580,"byteLength":36,"target":34963},{"buffer":0,"byteOffset":305616,"byteLength":144,"target":34963},{"buffer":0,"byteOffset":305760,"byteLength":1224,"target":34963},{"buffer":0,"byteOffset":306984,"byteLength":144,"target":34963},{"buffer":0,"byteOffset":307128,"byteLength":504,"target":34963},{"buffer":0,"byteOffset":307632,"byteLength":144,"target":34963},{"buffer":0,"byteOffset":307776,"byteLength":864,"target":34963},{"buffer":0,"byteOffset":308640,"byteLength":144,"target":34963},{"buffer":0,"byteOffset":308784,"byteLength":1008,"target":34963},{"buffer":0,"byteOffset":309792,"byteLength":144,"target":34963},{"buffer":0,"byteOffset":309936,"byteLength":648,"target":34963},{"buffer":0,"byteOffset":310584,"byteLength":144,"target":34963},{"buffer":0,"byteOffset":310728,"byteLength":576,"target":34963},{"buffer":0,"byteOffset":311304,"byteLength":288,"target":34963},{"buffer":0,"byteOffset":311592,"byteLength":1152,"target":34963},{"buffer":0,"byteOffset":312744,"byteLength":144,"target":34963},{"buffer":0,"byteOffset":312888,"byteLength":576,"target":34963},{"buffer":0,"byteOffset":313464,"byteLength":288,"target":34963},{"buffer":0,"byteOffset":313752,"byteLength":576,"target":34963},{"buffer":0,"byteOffset":314328,"byteLength":144,"target":34963},{"buffer":0,"byteOffset":314472,"byteLength":576,"target":34963},{"buffer":0,"byteOffset":315048,"byteLength":72,"target":34963},{"buffer":0,"byteOffset":315120,"byteLength":72,"target":34963},{"buffer":0,"byteOffset":315192,"byteLength":72,"target":34963},{"buffer":0,"byteOffset":315264,"byteLength":1080,"target":34963},{"buffer":0,"byteOffset":316344,"byteLength":72,"target":34963},{"buffer":0,"byteOffset":316416,"byteLength":24,"target":34963},{"buffer":0,"byteOffset":316440,"byteLength":12,"target":34963},{"buffer":0,"byteOffset":316452,"byteLength":612,"target":34963},{"buffer":0,"byteOffset":317064,"byteLength":144,"target":34963},{"buffer":0,"byteOffset":317208,"byteLength":576,"target":34963},{"buffer":0,"byteOffset":317784,"byteLength":72,"target":34963},{"buffer":0,"byteOffset":317856,"byteLength":24,"target":34963},{"buffer":0,"byteOffset":317880,"byteLength":12,"target":34963},{"buffer":0,"byteOffset":317892,"byteLength":7812,"target":34963},{"buffer":0,"byteOffset":325704,"byteLength":7776,"target":34963}],"buffers":[{"byteLength":333480,"uri":"data:application/octet-stream;base64,"}],"accessors":[{"bufferView":0,"componentType":5126,"count":9528,"max":[1.175358533859253,0.015582477673888206,0.12008793652057648],"min":[-1.199641466140747,-0.015667522326111794,-0.12991206347942352],"type":"VEC3"},{"bufferView":1,"componentType":5126,"count":9528,"max":[1,1,1],"min":[-1,-1,-1],"type":"VEC3"},{"bufferView":2,"componentType":5126,"count":9528,"max":[0.0625,0.0625],"min":[0,0],"type":"VEC2"},{"bufferView":3,"componentType":5123,"count":36,"max":[23],"min":[0],"type":"SCALAR"},{"bufferView":4,"componentType":5123,"count":300,"max":[223],"min":[24],"type":"SCALAR"},{"bufferView":5,"componentType":5123,"count":6,"max":[227],"min":[224],"type":"SCALAR"},{"bufferView":6,"componentType":5123,"count":18,"max":[239],"min":[228],"type":"SCALAR"},{"bufferView":7,"componentType":5123,"count":72,"max":[287],"min":[240],"type":"SCALAR"},{"bufferView":8,"componentType":5123,"count":612,"max":[695],"min":[288],"type":"SCALAR"},{"bufferView":9,"componentType":5123,"count":72,"max":[743],"min":[696],"type":"SCALAR"},{"bufferView":10,"componentType":5123,"count":252,"max":[911],"min":[744],"type":"SCALAR"},{"bufferView":11,"componentType":5123,"count":72,"max":[959],"min":[912],"type":"SCALAR"},{"bufferView":12,"componentType":5123,"count":432,"max":[1247],"min":[960],"type":"SCALAR"},{"bufferView":13,"componentType":5123,"count":72,"max":[1295],"min":[1248],"type":"SCALAR"},{"bufferView":14,"componentType":5123,"count":504,"max":[1631],"min":[1296],"type":"SCALAR"},{"bufferView":15,"componentType":5123,"count":72,"max":[1679],"min":[1632],"type":"SCALAR"},{"bufferView":16,"componentType":5123,"count":324,"max":[1895],"min":[1680],"type":"SCALAR"},{"bufferView":17,"componentType":5123,"count":72,"max":[1943],"min":[1896],"type":"SCALAR"},{"bufferView":18,"componentType":5123,"count":288,"max":[2135],"min":[1944],"type":"SCALAR"},{"bufferView":19,"componentType":5123,"count":144,"max":[2231],"min":[2136],"type":"SCALAR"},{"bufferView":20,"componentType":5123,"count":576,"max":[2615],"min":[2232],"type":"SCALAR"},{"bufferView":21,"componentType":5123,"count":72,"max":[2663],"min":[2616],"type":"SCALAR"},{"bufferView":22,"componentType":5123,"count":288,"max":[2855],"min":[2664],"type":"SCALAR"},{"bufferView":23,"componentType":5123,"count":144,"max":[2951],"min":[2856],"type":"SCALAR"},{"bufferView":24,"componentType":5123,"count":288,"max":[3143],"min":[2952],"type":"SCALAR"},{"bufferView":25,"componentType":5123,"count":72,"max":[3191],"min":[3144],"type":"SCALAR"},{"bufferView":26,"componentType":5123,"count":288,"max":[3383],"min":[3192],"type":"SCALAR"},{"bufferView":27,"componentType":5123,"count":36,"max":[3407],"min":[3384],"type":"SCALAR"},{"bufferView":28,"componentType":5123,"count":36,"max":[3431],"min":[3408],"type":"SCALAR"},{"bufferView":29,"componentType":5123,"count":36,"max":[3455],"min":[3432],"type":"SCALAR"},{"bufferView":30,"componentType":5123,"count":540,"max":[3815],"min":[3456],"type":"SCALAR"},{"bufferView":31,"componentType":5123,"count":36,"max":[3839],"min":[3816],"type":"SCALAR"},{"bufferView":32,"componentType":5123,"count":12,"max":[3847],"min":[3840],"type":"SCALAR"},{"bufferView":33,"componentType":5123,"count":6,"max":[3851],"min":[3848],"type":"SCALAR"},{"bufferView":34,"componentType":5123,"count":306,"max":[4055],"min":[3852],"type":"SCALAR"},{"bufferView":35,"componentType":5123,"count":72,"max":[4103],"min":[4056],"type":"SCALAR"},{"bufferView":36,"componentType":5123,"count":288,"max":[4295],"min":[4104],"type":"SCALAR"},{"bufferView":37,"componentType":5123,"count":36,"max":[4319],"min":[4296],"type":"SCALAR"},{"bufferView":38,"componentType":5123,"count":12,"max":[4327],"min":[4320],"type":"SCALAR"},{"bufferView":39,"componentType":5123,"count":6,"max":[4331],"min":[4328],"type":"SCALAR"},{"bufferView":40,"componentType":5123,"count":3906,"max":[6935],"min":[4332],"type":"SCALAR"},{"bufferView":41,"componentType":5123,"count":3888,"max":[9527],"min":[6936],"type":"SCALAR"}],"materials":[{"pbrMetallicRoughness":{"metallicFactor":0,"roughnessFactor":1,"baseColorTexture":{"index":0}},"alphaMode":"MASK","alphaCutoff":0.05,"doubleSided":true},{"pbrMetallicRoughness":{"metallicFactor":0,"roughnessFactor":1,"baseColorTexture":{"index":1}},"alphaMode":"MASK","alphaCutoff":0.05,"doubleSided":true},{"pbrMetallicRoughness":{"metallicFactor":0,"roughnessFactor":1,"baseColorTexture":{"index":2}},"alphaMode":"MASK","alphaCutoff":0.05,"doubleSided":true}],"textures":[{"sampler":0,"source":0,"name":"l2_dark_purple_c.png"},{"sampler":1,"source":1,"name":"dark_purple_c.png"},{"sampler":2,"source":2,"name":"gray12.png"}],"samplers":[{"magFilter":9728,"minFilter":9728,"wrapS":33071,"wrapT":33071},{"magFilter":9728,"minFilter":9728,"wrapS":33071,"wrapT":33071},{"magFilter":9728,"minFilter":9728,"wrapS":33071,"wrapT":33071}],"images":[{"mimeType":"image/png","uri":"data:image/png;base64,"},{"mimeType":"image/png","uri":"data:image/png;base64,"},{"mimeType":"image/png","uri":"data:image/png;base64,"}],"meshes":[{"primitives":[{"mode":4,"attributes":{"POSITION":0,"NORMAL":1,"TEXCOORD_0":2},"indices":3,"material":0},{"mode":4,"attributes":{"POSITION":0,"NORMAL":1,"TEXCOORD_0":2},"indices":4,"material":1},{"mode":4,"attributes":{"POSITION":0,"NORMAL":1,"TEXCOORD_0":2},"indices":5,"material":0},{"mode":4,"attributes":{"POSITION":0,"NORMAL":1,"TEXCOORD_0":2},"indices":6,"material":1},{"mode":4,"attributes":{"POSITION":0,"NORMAL":1,"TEXCOORD_0":2},"indices":7,"material":0},{"mode":4,"attributes":{"POSITION":0,"NORMAL":1,"TEXCOORD_0":2},"indices":8,"material":1},{"mode":4,"attributes":{"POSITION":0,"NORMAL":1,"TEXCOORD_0":2},"indices":9,"material":0},{"mode":4,"attributes":{"POSITION":0,"NORMAL":1,"TEXCOORD_0":2},"indices":10,"material":1},{"mode":4,"attributes":{"POSITION":0,"NORMAL":1,"TEXCOORD_0":2},"indices":11,"material":0},{"mode":4,"attributes":{"POSITION":0,"NORMAL":1,"TEXCOORD_0":2},"indices":12,"material":1},{"mode":4,"attributes":{"POSITION":0,"NORMAL":1,"TEXCOORD_0":2},"indices":13,"material":0},{"mode":4,"attributes":{"POSITION":0,"NORMAL":1,"TEXCOORD_0":2},"indices":14,"material":1},{"mode":4,"attributes":{"POSITION":0,"NORMAL":1,"TEXCOORD_0":2},"indices":15,"material":0},{"mode":4,"attributes":{"POSITION":0,"NORMAL":1,"TEXCOORD_0":2},"indices":16,"material":1},{"mode":4,"attributes":{"POSITION":0,"NORMAL":1,"TEXCOORD_0":2},"indices":17,"material":0},{"mode":4,"attributes":{"POSITION":0,"NORMAL":1,"TEXCOORD_0":2},"indices":18,"material":1},{"mode":4,"attributes":{"POSITION":0,"NORMAL":1,"TEXCOORD_0":2},"indices":19,"material":0},{"mode":4,"attributes":{"POSITION":0,"NORMAL":1,"TEXCOORD_0":2},"indices":20,"material":1},{"mode":4,"attributes":{"POSITION":0,"NORMAL":1,"TEXCOORD_0":2},"indices":21,"material":0},{"mode":4,"attributes":{"POSITION":0,"NORMAL":1,"TEXCOORD_0":2},"indices":22,"material":1},{"mode":4,"attributes":{"POSITION":0,"NORMAL":1,"TEXCOORD_0":2},"indices":23,"material":0},{"mode":4,"attributes":{"POSITION":0,"NORMAL":1,"TEXCOORD_0":2},"indices":24,"material":1},{"mode":4,"attributes":{"POSITION":0,"NORMAL":1,"TEXCOORD_0":2},"indices":25,"material":0},{"mode":4,"attributes":{"POSITION":0,"NORMAL":1,"TEXCOORD_0":2},"indices":26,"material":1},{"mode":4,"attributes":{"POSITION":0,"NORMAL":1,"TEXCOORD_0":2},"indices":27,"material":0},{"mode":4,"attributes":{"POSITION":0,"NORMAL":1,"TEXCOORD_0":2},"indices":28,"material":1},{"mode":4,"attributes":{"POSITION":0,"NORMAL":1,"TEXCOORD_0":2},"indices":29,"material":0},{"mode":4,"attributes":{"POSITION":0,"NORMAL":1,"TEXCOORD_0":2},"indices":30,"material":1},{"mode":4,"attributes":{"POSITION":0,"NORMAL":1,"TEXCOORD_0":2},"indices":31,"material":0},{"mode":4,"attributes":{"POSITION":0,"NORMAL":1,"TEXCOORD_0":2},"indices":32,"material":1},{"mode":4,"attributes":{"POSITION":0,"NORMAL":1,"TEXCOORD_0":2},"indices":33,"material":0},{"mode":4,"attributes":{"POSITION":0,"NORMAL":1,"TEXCOORD_0":2},"indices":34,"material":1},{"mode":4,"attributes":{"POSITION":0,"NORMAL":1,"TEXCOORD_0":2},"indices":35,"material":0},{"mode":4,"attributes":{"POSITION":0,"NORMAL":1,"TEXCOORD_0":2},"indices":36,"material":1},{"mode":4,"attributes":{"POSITION":0,"NORMAL":1,"TEXCOORD_0":2},"indices":37,"material":0},{"mode":4,"attributes":{"POSITION":0,"NORMAL":1,"TEXCOORD_0":2},"indices":38,"material":1},{"mode":4,"attributes":{"POSITION":0,"NORMAL":1,"TEXCOORD_0":2},"indices":39,"material":0},{"mode":4,"attributes":{"POSITION":0,"NORMAL":1,"TEXCOORD_0":2},"indices":40,"material":1},{"mode":4,"attributes":{"POSITION":0,"NORMAL":1,"TEXCOORD_0":2},"indices":41,"material":2}]}]}