{"asset":{"version":"2.0","generator":"Blockbench 4.12.6 glTF exporter"},"scenes":[{"nodes":[3],"name":"blockbench_export"}],"scene":0,"nodes":[{"rotation":[0,-1,0,6.123233995736766e-17],"translation":[0.0005790904779949706,0.37779872999534264,0.020598566419336457],"name":"cube","mesh":0},{"name":"topglass"},{"translation":[0,0.5,0],"name":"box","children":[1]},{"children":[0,2]}],"bufferViews":[{"buffer":0,"byteOffset":0,"byteLength":24192,"target":34962,"byteStride":12},{"buffer":0,"byteOffset":24192,"byteLength":24192,"target":34962,"byteStride":12},{"buffer":0,"byteOffset":48384,"byteLength":16128,"target":34962,"byteStride":8},{"buffer":0,"byteOffset":64512,"byteLength":144,"target":34963},{"buffer":0,"byteOffset":64656,"byteLength":360,"target":34963},{"buffer":0,"byteOffset":65016,"byteLength":360,"target":34963},{"buffer":0,"byteOffset":65376,"byteLength":2448,"target":34963},{"buffer":0,"byteOffset":67824,"byteLength":432,"target":34963},{"buffer":0,"byteOffset":68256,"byteLength":360,"target":34963},{"buffer":0,"byteOffset":68616,"byteLength":1080,"target":34963},{"buffer":0,"byteOffset":69696,"byteLength":288,"target":34963},{"buffer":0,"byteOffset":69984,"byteLength":288,"target":34963},{"buffer":0,"byteOffset":70272,"byteLength":288,"target":34963}],"buffers":[{"byteLength":70560,"uri":"data:application/octet-stream;base64,"}],"accessors":[{"bufferView":0,"componentType":5126,"count":2016,"max":[0.5412847995758057,0.41595128178596497,0.33375757932662964],"min":[-0.5424270629882812,-0.37779873609542847,-0.374954491853714],"type":"VEC3"},{"bufferView":1,"componentType":5126,"count":2016,"max":[1,1,1],"min":[-1,-1,-1],"type":"VEC3"},{"bufferView":2,"componentType":5126,"count":2016,"max":[1,1],"min":[0,0],"type":"VEC2"},{"bufferView":3,"componentType":5123,"count":72,"max":[47],"min":[0],"type":"SCALAR"},{"bufferView":4,"componentType":5123,"count":180,"max":[167],"min":[48],"type":"SCALAR"},{"bufferView":5,"componentType":5123,"count":180,"max":[287],"min":[168],"type":"SCALAR"},{"bufferView":6,"componentType":5123,"count":1224,"max":[1103],"min":[288],"type":"SCALAR"},{"bufferView":7,"componentType":5123,"count":216,"max":[1247],"min":[1104],"type":"SCALAR"},{"bufferView":8,"componentType":5123,"count":180,"max":[1367],"min":[1248],"type":"SCALAR"},{"bufferView":9,"componentType":5123,"count":540,"max":[1727],"min":[1368],"type":"SCALAR"},{"bufferView":10,"componentType":5123,"count":144,"max":[1823],"min":[1728],"type":"SCALAR"},{"bufferView":11,"componentType":5123,"count":144,"max":[1919],"min":[1824],"type":"SCALAR"},{"bufferView":12,"componentType":5123,"count":144,"max":[2015],"min":[1920],"type":"SCALAR"}],"materials":[{"pbrMetallicRoughness":{"metallicFactor":0,"roughnessFactor":1,"baseColorTexture":{"index":0}},"alphaMode":"MASK","alphaCutoff":0.05,"doubleSided":true},{"pbrMetallicRoughness":{"metallicFactor":0,"roughnessFactor":1,"baseColorTexture":{"index":1}},"alphaMode":"MASK","alphaCutoff":0.05,"doubleSided":true},{"pbrMetallicRoughness":{"metallicFactor":0,"roughnessFactor":1,"baseColorTexture":{"index":2}},"alphaMode":"MASK","alphaCutoff":0.05,"doubleSided":true},{"pbrMetallicRoughness":{"metallicFactor":0,"roughnessFactor":1,"baseColorTexture":{"index":3}},"alphaMode":"MASK","alphaCutoff":0.05,"doubleSided":true},{"pbrMetallicRoughness":{"metallicFactor":0,"roughnessFactor":1,"baseColorTexture":{"index":4}},"alphaMode":"MASK","alphaCutoff":0.05,"doubleSided":true},{"pbrMetallicRoughness":{"metallicFactor":0,"roughnessFactor":1,"baseColorTexture":{"index":5}},"alphaMode":"MASK","alphaCutoff":0.05,"doubleSided":true},{"pbrMetallicRoughness":{"metallicFactor":0,"roughnessFactor":1,"baseColorTexture":{"index":6}},"alphaMode":"MASK","alphaCutoff":0.05,"doubleSided":true},{"pbrMetallicRoughness":{"metallicFactor":0,"roughnessFactor":1,"baseColorTexture":{"index":7}},"alphaMode":"MASK","alphaCutoff":0.05,"doubleSided":true},{"pbrMetallicRoughness":{"metallicFactor":0,"roughnessFactor":1,"baseColorTexture":{"index":8}},"alphaMode":"MASK","alphaCutoff":0.05,"doubleSided":true}],"textures":[{"sampler":0,"source":0,"name":"gray_stained_glass.png"},{"sampler":1,"source":1,"name":"glass.png"},{"sampler":2,"source":2,"name":"white_wool.png"},{"sampler":3,"source":3,"name":"limegreen.png"},{"sampler":4,"source":4,"name":"coarse_dirt.png"},{"sampler":5,"source":5,"name":"oak_log.png"},{"sampler":6,"source":6,"name":"stripped_oak_log_top.png"},{"sampler":7,"source":7,"name":"white_shulker_box.png"},{"sampler":8,"source":8,"name":"hotpink.png"}],"samplers":[{"magFilter":9728,"minFilter":9728,"wrapS":33071,"wrapT":33071},{"magFilter":9728,"minFilter":9728,"wrapS":33071,"wrapT":33071},{"magFilter":9728,"minFilter":9728,"wrapS":33071,"wrapT":33071},{"magFilter":9728,"minFilter":9728,"wrapS":33071,"wrapT":33071},{"magFilter":9728,"minFilter":9728,"wrapS":33071,"wrapT":33071},{"magFilter":9728,"minFilter":9728,"wrapS":33071,"wrapT":33071},{"magFilter":9728,"minFilter":9728,"wrapS":33071,"wrapT":33071},{"magFilter":9728,"minFilter":9728,"wrapS":33071,"wrapT":33071},{"magFilter":9728,"minFilter":9728,"wrapS":33071,"wrapT":33071}],"images":[{"mimeType":"image/png","uri":"data:image/png;base64,"},{"mimeType":"image/png","uri":"data:image/png;base64,"},{"mimeType":"image/png","uri":"data:image/png;base64,"},{"mimeType":"image/png","uri":"data:image/png;base64,"},{"mimeType":"image/png","uri":"data:image/png;base64,"},{"mimeType":"image/png","uri":"data:image/png;base64,"},{"mimeType":"image/png","uri":"data:image/png;base64,"},{"mimeType":"image/png","uri":"data:image/png;base64,"},{"mimeType":"image/png","uri":"data:image/png;base64,"}],"meshes":[{"primitives":[{"mode":4,"attributes":{"POSITION":0,"NORMAL":1,"TEXCOORD_0":2},"indices":3,"material":0},{"mode":4,"attributes":{"POSITION":0,"NORMAL":1,"TEXCOORD_0":2},"indices":4,"material":1},{"mode":4,"attributes":{"POSITION":0,"NORMAL":1,"TEXCOORD_0":2},"indices":5,"material":2},{"mode":4,"attributes":{"POSITION":0,"NORMAL":1,"TEXCOORD_0":2},"indices":6,"material":3},{"mode":4,"attributes":{"POSITION":0,"NORMAL":1,"TEXCOORD_0":2},"indices":7,"material":4},{"mode":4,"attributes":{"POSITION":0,"NORMAL":1,"TEXCOORD_0":2},"indices":8,"material":5},{"mode":4,"attributes":{"POSITION":0,"NORMAL":1,"TEXCOORD_0":2},"indices":9,"material":6},{"mode":4,"attributes":{"POSITION":0,"NORMAL":1,"TEXCOORD_0":2},"indices":10,"material":5},{"mode":4,"attributes":{"POSITION":0,"NORMAL":1,"TEXCOORD_0":2},"indices":11,"material":7},{"mode":4,"attributes":{"POSITION":0,"NORMAL":1,"TEXCOORD_0":2},"indices":12,"material":8}]}]}