<svg width="16.099" height="21.619" viewBox="0 0 16.099 21.619" xmlns="http://www.w3.org/2000/svg"><g id="svgGroup" stroke-linecap="round" fill-rule="nonzero" font-size="9pt" stroke="#fd3030" stroke-width=".0" fill="#1f75fe" style="stroke:#fd3030;stroke-width:.0;fill:#1f75fe"><path d="M 15.01 21.61 L 1.09 21.61 Q 0.01 21.61 0.01 20.53 L 0.01 1.09 Q 0.01 0.01 1.09 0.01 L 15.01 0.01 Q 16.09 0.01 16.09 1.09 L 16.09 4.6 Q 16.09 5.68 15.01 5.68 L 6.73 5.68 L 6.73 7.99 L 12.58 7.99 Q 13.66 7.99 13.66 9.07 L 13.66 12.28 Q 13.66 13.36 12.58 13.36 L 6.73 13.36 L 6.73 15.94 L 15.01 15.94 Q 16.09 15.94 16.09 17.02 L 16.09 20.53 Q 16.09 21.61 15.01 21.61 Z"/></g></svg>