<svg width="48" height="68" viewBox="0 0 48 68" fill="none" xmlns="http://www.w3.org/2000/svg">
<path d="M8.256 8.16C7.296 9.12 6.144 9.6 4.8 9.6C3.456 9.6 2.304 9.12 1.44 8.16C0.48 7.296 0 6.144 0 4.8C0 3.456 0.48 2.304 1.44 1.344C2.304 0.48 3.456 0 4.8 0C6.144 0 7.296 0.48 8.256 1.344C9.12 2.304 9.6 3.456 9.6 4.8C9.6 6.144 9.12 7.296 8.256 8.16ZM1.44 65.76C0.48 64.896 0 63.744 0 62.4C0 61.056 0.48 59.904 1.44 58.944C2.304 58.08 3.456 57.6 4.8 57.6C6.144 57.6 7.296 58.08 8.256 58.944C9.12 59.904 9.6 61.056 9.6 62.4C9.6 63.744 9.12 64.896 8.256 65.76C7.296 66.72 6.144 67.2 4.8 67.2C3.456 67.2 2.304 66.72 1.44 65.76ZM1.44 51.36C0.48 50.496 0 49.344 0 48C0 46.656 0.48 45.504 1.44 44.544C2.304 43.68 3.456 43.2 4.8 43.2C6.144 43.2 7.296 43.68 8.256 44.544C9.12 45.504 9.6 46.656 9.6 48C9.6 49.344 9.12 50.496 8.256 51.36C7.296 52.32 6.144 52.8 4.8 52.8C3.456 52.8 2.304 52.32 1.44 51.36ZM1.44 36.96C0.48 36.096 0 34.944 0 33.6C0 32.256 0.48 31.104 1.44 30.144C2.304 29.28 3.456 28.8 4.8 28.8C6.144 28.8 7.296 29.28 8.256 30.144C9.12 31.104 9.6 32.256 9.6 33.6C9.6 34.944 9.12 36.096 8.256 36.96C7.296 37.92 6.144 38.4 4.8 38.4C3.456 38.4 2.304 37.92 1.44 36.96ZM1.44 22.56C0.48 21.696 0 20.544 0 19.2C0 17.856 0.48 16.704 1.44 15.744C2.304 14.88 3.456 14.4 4.8 14.4C6.144 14.4 7.296 14.88 8.256 15.744C9.12 16.704 9.6 17.856 9.6 19.2C9.6 20.544 9.12 21.696 8.256 22.56C7.296 23.52 6.144 24 4.8 24C3.456 24 2.304 23.52 1.44 22.56ZM11.04 65.76C10.08 64.896 9.6 63.744 9.6 62.4C9.6 61.056 10.08 59.904 11.04 58.944C11.904 58.08 13.056 57.6 14.4 57.6C15.744 57.6 16.896 58.08 17.856 58.944C18.72 59.904 19.2 61.056 19.2 62.4C19.2 63.744 18.72 64.896 17.856 65.76C16.896 66.72 15.744 67.2 14.4 67.2C13.056 67.2 11.904 66.72 11.04 65.76ZM11.04 36.96C10.08 36.096 9.6 34.944 9.6 33.6C9.6 32.256 10.08 31.104 11.04 30.144C11.904 29.28 13.056 28.8 14.4 28.8C15.744 28.8 16.896 29.28 17.856 30.144C18.72 31.104 19.2 32.256 19.2 33.6C19.2 34.944 18.72 36.096 17.856 36.96C16.896 37.92 15.744 38.4 14.4 38.4C13.056 38.4 11.904 37.92 11.04 36.96ZM11.04 8.16C10.08 7.296 9.6 6.144 9.6 4.8C9.6 3.456 10.08 2.304 11.04 1.344C11.904 0.48 13.056 0 14.4 0C15.744 0 16.896 0.48 17.856 1.344C18.72 2.304 19.2 3.456 19.2 4.8C19.2 6.144 18.72 7.296 17.856 8.16C16.896 9.12 15.744 9.6 14.4 9.6C13.056 9.6 11.904 9.12 11.04 8.16ZM20.64 65.76C19.68 64.896 19.2 63.744 19.2 62.4C19.2 61.056 19.68 59.904 20.64 58.944C21.504 58.08 22.656 57.6 24 57.6C25.344 57.6 26.496 58.08 27.456 58.944C28.32 59.904 28.8 61.056 28.8 62.4C28.8 63.744 28.32 64.896 27.456 65.76C26.496 66.72 25.344 67.2 24 67.2C22.656 67.2 21.504 66.72 20.64 65.76ZM20.64 36.96C19.68 36.096 19.2 34.944 19.2 33.6C19.2 32.256 19.68 31.104 20.64 30.144C21.504 29.28 22.656 28.8 24 28.8C25.344 28.8 26.496 29.28 27.456 30.144C28.32 31.104 28.8 32.256 28.8 33.6C28.8 34.944 28.32 36.096 27.456 36.96C26.496 37.92 25.344 38.4 24 38.4C22.656 38.4 21.504 37.92 20.64 36.96ZM20.64 8.16C19.68 7.296 19.2 6.144 19.2 4.8C19.2 3.456 19.68 2.304 20.64 1.344C21.504 0.48 22.656 0 24 0C25.344 0 26.496 0.48 27.456 1.344C28.32 2.304 28.8 3.456 28.8 4.8C28.8 6.144 28.32 7.296 27.456 8.16C26.496 9.12 25.344 9.6 24 9.6C22.656 9.6 21.504 9.12 20.64 8.16ZM30.24 65.76C29.28 64.896 28.8 63.744 28.8 62.4C28.8 61.056 29.28 59.904 30.24 58.944C31.104 58.08 32.256 57.6 33.6 57.6C34.944 57.6 36.096 58.08 37.056 58.944C37.92 59.904 38.4 61.056 38.4 62.4C38.4 63.744 37.92 64.896 37.056 65.76C36.096 66.72 34.944 67.2 33.6 67.2C32.256 67.2 31.104 66.72 30.24 65.76ZM30.24 36.96C29.28 36.096 28.8 34.944 28.8 33.6C28.8 32.256 29.28 31.104 30.24 30.144C31.104 29.28 32.256 28.8 33.6 28.8C34.944 28.8 36.096 29.28 37.056 30.144C37.92 31.104 38.4 32.256 38.4 33.6C38.4 34.944 37.92 36.096 37.056 36.96C36.096 37.92 34.944 38.4 33.6 38.4C32.256 38.4 31.104 37.92 30.24 36.96ZM30.24 8.16C29.28 7.296 28.8 6.144 28.8 4.8C28.8 3.456 29.28 2.304 30.24 1.344C31.104 0.48 32.256 0 33.6 0C34.944 0 36.096 0.48 37.056 1.344C37.92 2.304 38.4 3.456 38.4 4.8C38.4 6.144 37.92 7.296 37.056 8.16C36.096 9.12 34.944 9.6 33.6 9.6C32.256 9.6 31.104 9.12 30.24 8.16ZM39.84 65.76C38.88 64.896 38.4 63.744 38.4 62.4C38.4 61.056 38.88 59.904 39.84 58.944C40.704 58.08 41.856 57.6 43.2 57.6C44.544 57.6 45.696 58.08 46.656 58.944C47.52 59.904 48 61.056 48 62.4C48 63.744 47.52 64.896 46.656 65.76C45.696 66.72 44.544 67.2 43.2 67.2C41.856 67.2 40.704 66.72 39.84 65.76ZM39.84 8.16C38.88 7.296 38.4 6.144 38.4 4.8C38.4 3.456 38.88 2.304 39.84 1.344C40.704 0.48 41.856 0 43.2 0C44.544 0 45.696 0.48 46.656 1.344C47.52 2.304 48 3.456 48 4.8C48 6.144 47.52 7.296 46.656 8.16C45.696 9.12 44.544 9.6 43.2 9.6C41.856 9.6 40.704 9.12 39.84 8.16Z" fill="black"/>
</svg>
