<svg width="160" height="140" viewBox="0 0 160 140" fill="none" xmlns="http://www.w3.org/2000/svg">
<path d="M74.9686 9.06475C77.4695 9.06475 79.4969 7.03554 79.4969 4.53237C79.4969 2.02921 77.4695 0 74.9686 0C72.4676 0 70.4403 2.02921 70.4403 4.53237C70.4403 7.03554 72.4676 9.06475 74.9686 9.06475Z" fill="current"/>
<path d="M85.0315 9.06475C87.5324 9.06475 89.5598 7.03554 89.5598 4.53237C89.5598 2.02921 87.5324 0 85.0315 0C82.5305 0 80.5031 2.02921 80.5031 4.53237C80.5031 7.03554 82.5305 9.06475 85.0315 9.06475Z" fill="current"/>
<path d="M95.0943 9.06475C97.5953 9.06475 99.6226 7.03554 99.6226 4.53237C99.6226 2.02921 97.5953 0 95.0943 0C92.5934 0 90.566 2.02921 90.566 4.53237C90.566 7.03554 92.5934 9.06475 95.0943 9.06475Z" fill="current"/>
<path d="M74.9686 19.1367C77.4695 19.1367 79.4969 17.1075 79.4969 14.6043C79.4969 12.1012 77.4695 10.0719 74.9686 10.0719C72.4676 10.0719 70.4403 12.1012 70.4403 14.6043C70.4403 17.1075 72.4676 19.1367 74.9686 19.1367Z" fill="current"/>
<path d="M85.0315 19.1367C87.5324 19.1367 89.5598 17.1075 89.5598 14.6043C89.5598 12.1012 87.5324 10.0719 85.0315 10.0719C82.5305 10.0719 80.5031 12.1012 80.5031 14.6043C80.5031 17.1075 82.5305 19.1367 85.0315 19.1367Z" fill="current"/>
<path d="M95.0943 19.1367C97.5953 19.1367 99.6226 17.1075 99.6226 14.6043C99.6226 12.1012 97.5953 10.0719 95.0943 10.0719C92.5934 10.0719 90.566 12.1012 90.566 14.6043C90.566 17.1075 92.5934 19.1367 95.0943 19.1367Z" fill="current"/>
<path d="M105.157 19.1367C107.658 19.1367 109.686 17.1075 109.686 14.6043C109.686 12.1012 107.658 10.0719 105.157 10.0719C102.656 10.0719 100.629 12.1012 100.629 14.6043C100.629 17.1075 102.656 19.1367 105.157 19.1367Z" fill="current"/>
<path d="M95.0943 29.2086C97.5953 29.2086 99.6226 27.1794 99.6226 24.6763C99.6226 22.1731 97.5953 20.1439 95.0943 20.1439C92.5934 20.1439 90.566 22.1731 90.566 24.6763C90.566 27.1794 92.5934 29.2086 95.0943 29.2086Z" fill="current"/>
<path d="M105.157 29.2086C107.658 29.2086 109.686 27.1794 109.686 24.6763C109.686 22.1731 107.658 20.1439 105.157 20.1439C102.656 20.1439 100.629 22.1731 100.629 24.6763C100.629 27.1794 102.656 29.2086 105.157 29.2086Z" fill="current"/>
<path d="M115.22 29.2086C117.721 29.2086 119.748 27.1794 119.748 24.6763C119.748 22.1731 117.721 20.1439 115.22 20.1439C112.719 20.1439 110.692 22.1731 110.692 24.6763C110.692 27.1794 112.719 29.2086 115.22 29.2086Z" fill="current"/>
<path d="M24.6541 39.2806C27.155 39.2806 29.1824 37.2514 29.1824 34.7482C29.1824 32.245 27.155 30.2158 24.6541 30.2158C22.1532 30.2158 20.1258 32.245 20.1258 34.7482C20.1258 37.2514 22.1532 39.2806 24.6541 39.2806Z" fill="current"/>
<path d="M34.717 39.2806C37.2179 39.2806 39.2453 37.2514 39.2453 34.7482C39.2453 32.245 37.2179 30.2158 34.717 30.2158C32.2161 30.2158 30.1887 32.245 30.1887 34.7482C30.1887 37.2514 32.2161 39.2806 34.717 39.2806Z" fill="current"/>
<path d="M44.7799 39.2806C47.2808 39.2806 49.3082 37.2514 49.3082 34.7482C49.3082 32.245 47.2808 30.2158 44.7799 30.2158C42.279 30.2158 40.2516 32.245 40.2516 34.7482C40.2516 37.2514 42.279 39.2806 44.7799 39.2806Z" fill="current"/>
<path d="M54.8428 39.2806C57.3437 39.2806 59.3711 37.2514 59.3711 34.7482C59.3711 32.245 57.3437 30.2158 54.8428 30.2158C52.3419 30.2158 50.3145 32.245 50.3145 34.7482C50.3145 37.2514 52.3419 39.2806 54.8428 39.2806Z" fill="current"/>
<path d="M64.9057 39.2806C67.4066 39.2806 69.434 37.2514 69.434 34.7482C69.434 32.245 67.4066 30.2158 64.9057 30.2158C62.4048 30.2158 60.3774 32.245 60.3774 34.7482C60.3774 37.2514 62.4048 39.2806 64.9057 39.2806Z" fill="current"/>
<path d="M74.9686 39.2806C77.4695 39.2806 79.4969 37.2514 79.4969 34.7482C79.4969 32.245 77.4695 30.2158 74.9686 30.2158C72.4676 30.2158 70.4403 32.245 70.4403 34.7482C70.4403 37.2514 72.4676 39.2806 74.9686 39.2806Z" fill="current"/>
<path d="M85.0315 39.2806C87.5324 39.2806 89.5598 37.2514 89.5598 34.7482C89.5598 32.245 87.5324 30.2158 85.0315 30.2158C82.5305 30.2158 80.5031 32.245 80.5031 34.7482C80.5031 37.2514 82.5305 39.2806 85.0315 39.2806Z" fill="current"/>
<path d="M95.0943 39.2806C97.5953 39.2806 99.6226 37.2514 99.6226 34.7482C99.6226 32.245 97.5953 30.2158 95.0943 30.2158C92.5934 30.2158 90.566 32.245 90.566 34.7482C90.566 37.2514 92.5934 39.2806 95.0943 39.2806Z" fill="current"/>
<path d="M105.157 39.2806C107.658 39.2806 109.686 37.2514 109.686 34.7482C109.686 32.245 107.658 30.2158 105.157 30.2158C102.656 30.2158 100.629 32.245 100.629 34.7482C100.629 37.2514 102.656 39.2806 105.157 39.2806Z" fill="current"/>
<path d="M115.22 39.2806C117.721 39.2806 119.748 37.2514 119.748 34.7482C119.748 32.245 117.721 30.2158 115.22 30.2158C112.719 30.2158 110.692 32.245 110.692 34.7482C110.692 37.2514 112.719 39.2806 115.22 39.2806Z" fill="current"/>
<path d="M125.283 39.2806C127.784 39.2806 129.811 37.2514 129.811 34.7482C129.811 32.245 127.784 30.2158 125.283 30.2158C122.782 30.2158 120.755 32.245 120.755 34.7482C120.755 37.2514 122.782 39.2806 125.283 39.2806Z" fill="current"/>
<path d="M24.6541 49.3525C27.155 49.3525 29.1824 47.3233 29.1824 44.8201C29.1824 42.317 27.155 40.2878 24.6541 40.2878C22.1532 40.2878 20.1258 42.317 20.1258 44.8201C20.1258 47.3233 22.1532 49.3525 24.6541 49.3525Z" fill="current"/>
<path d="M34.717 49.3525C37.2179 49.3525 39.2453 47.3233 39.2453 44.8201C39.2453 42.317 37.2179 40.2878 34.717 40.2878C32.2161 40.2878 30.1887 42.317 30.1887 44.8201C30.1887 47.3233 32.2161 49.3525 34.717 49.3525Z" fill="current"/>
<path d="M44.7799 49.3525C47.2808 49.3525 49.3082 47.3233 49.3082 44.8201C49.3082 42.317 47.2808 40.2878 44.7799 40.2878C42.279 40.2878 40.2516 42.317 40.2516 44.8201C40.2516 47.3233 42.279 49.3525 44.7799 49.3525Z" fill="current"/>
<path d="M54.8428 49.3525C57.3437 49.3525 59.3711 47.3233 59.3711 44.8201C59.3711 42.317 57.3437 40.2878 54.8428 40.2878C52.3419 40.2878 50.3145 42.317 50.3145 44.8201C50.3145 47.3233 52.3419 49.3525 54.8428 49.3525Z" fill="current"/>
<path d="M64.9057 49.3525C67.4066 49.3525 69.434 47.3233 69.434 44.8201C69.434 42.317 67.4066 40.2878 64.9057 40.2878C62.4048 40.2878 60.3774 42.317 60.3774 44.8201C60.3774 47.3233 62.4048 49.3525 64.9057 49.3525Z" fill="current"/>
<path d="M74.9686 49.3525C77.4695 49.3525 79.4969 47.3233 79.4969 44.8201C79.4969 42.317 77.4695 40.2878 74.9686 40.2878C72.4676 40.2878 70.4403 42.317 70.4403 44.8201C70.4403 47.3233 72.4676 49.3525 74.9686 49.3525Z" fill="current"/>
<path d="M85.0315 49.3525C87.5324 49.3525 89.5598 47.3233 89.5598 44.8201C89.5598 42.317 87.5324 40.2878 85.0315 40.2878C82.5305 40.2878 80.5031 42.317 80.5031 44.8201C80.5031 47.3233 82.5305 49.3525 85.0315 49.3525Z" fill="current"/>
<path d="M95.0943 49.3525C97.5953 49.3525 99.6226 47.3233 99.6226 44.8201C99.6226 42.317 97.5953 40.2878 95.0943 40.2878C92.5934 40.2878 90.566 42.317 90.566 44.8201C90.566 47.3233 92.5934 49.3525 95.0943 49.3525Z" fill="current"/>
<path d="M105.157 49.3525C107.658 49.3525 109.686 47.3233 109.686 44.8201C109.686 42.317 107.658 40.2878 105.157 40.2878C102.656 40.2878 100.629 42.317 100.629 44.8201C100.629 47.3233 102.656 49.3525 105.157 49.3525Z" fill="current"/>
<path d="M115.22 49.3525C117.721 49.3525 119.748 47.3233 119.748 44.8201C119.748 42.317 117.721 40.2878 115.22 40.2878C112.719 40.2878 110.692 42.317 110.692 44.8201C110.692 47.3233 112.719 49.3525 115.22 49.3525Z" fill="current"/>
<path d="M125.283 49.3525C127.784 49.3525 129.811 47.3233 129.811 44.8201C129.811 42.317 127.784 40.2878 125.283 40.2878C122.782 40.2878 120.755 42.317 120.755 44.8201C120.755 47.3233 122.782 49.3525 125.283 49.3525Z" fill="current"/>
<path d="M135.346 49.3525C137.847 49.3525 139.874 47.3233 139.874 44.8201C139.874 42.317 137.847 40.2878 135.346 40.2878C132.845 40.2878 130.818 42.317 130.818 44.8201C130.818 47.3233 132.845 49.3525 135.346 49.3525Z" fill="current"/>
<path d="M64.9057 59.4245C67.4066 59.4245 69.434 57.3952 69.434 54.8921C69.434 52.3889 67.4066 50.3597 64.9057 50.3597C62.4048 50.3597 60.3774 52.3889 60.3774 54.8921C60.3774 57.3952 62.4048 59.4245 64.9057 59.4245Z" fill="current"/>
<path d="M74.9686 59.4245C77.4695 59.4245 79.4969 57.3952 79.4969 54.8921C79.4969 52.3889 77.4695 50.3597 74.9686 50.3597C72.4676 50.3597 70.4403 52.3889 70.4403 54.8921C70.4403 57.3952 72.4676 59.4245 74.9686 59.4245Z" fill="current"/>
<path d="M135.346 59.4245C137.847 59.4245 139.874 57.3952 139.874 54.8921C139.874 52.3889 137.847 50.3597 135.346 50.3597C132.845 50.3597 130.818 52.3889 130.818 54.8921C130.818 57.3952 132.845 59.4245 135.346 59.4245Z" fill="current"/>
<path d="M145.409 59.4245C147.91 59.4245 149.937 57.3952 149.937 54.8921C149.937 52.3889 147.91 50.3597 145.409 50.3597C142.908 50.3597 140.881 52.3889 140.881 54.8921C140.881 57.3952 142.908 59.4245 145.409 59.4245Z" fill="current"/>
<path d="M44.7799 69.4964C47.2808 69.4964 49.3082 67.4672 49.3082 64.964C49.3082 62.4609 47.2808 60.4317 44.7799 60.4317C42.279 60.4317 40.2516 62.4609 40.2516 64.964C40.2516 67.4672 42.279 69.4964 44.7799 69.4964Z" fill="current"/>
<path d="M54.8428 69.4964C57.3437 69.4964 59.3711 67.4672 59.3711 64.964C59.3711 62.4609 57.3437 60.4317 54.8428 60.4317C52.3419 60.4317 50.3145 62.4609 50.3145 64.964C50.3145 67.4672 52.3419 69.4964 54.8428 69.4964Z" fill="current"/>
<path d="M64.9057 69.4964C67.4066 69.4964 69.434 67.4672 69.434 64.964C69.434 62.4609 67.4066 60.4317 64.9057 60.4317C62.4048 60.4317 60.3774 62.4609 60.3774 64.964C60.3774 67.4672 62.4048 69.4964 64.9057 69.4964Z" fill="current"/>
<path d="M95.0943 69.4964C97.5953 69.4964 99.6226 67.4672 99.6226 64.964C99.6226 62.4609 97.5953 60.4317 95.0943 60.4317C92.5934 60.4317 90.566 62.4609 90.566 64.964C90.566 67.4672 92.5934 69.4964 95.0943 69.4964Z" fill="current"/>
<path d="M105.157 69.4964C107.658 69.4964 109.686 67.4672 109.686 64.964C109.686 62.4609 107.658 60.4317 105.157 60.4317C102.656 60.4317 100.629 62.4609 100.629 64.964C100.629 67.4672 102.656 69.4964 105.157 69.4964Z" fill="current"/>
<path d="M115.22 69.4964C117.721 69.4964 119.748 67.4672 119.748 64.964C119.748 62.4609 117.721 60.4317 115.22 60.4317C112.719 60.4317 110.692 62.4609 110.692 64.964C110.692 67.4672 112.719 69.4964 115.22 69.4964Z" fill="current"/>
<path d="M145.409 69.4964C147.91 69.4964 149.937 67.4672 149.937 64.964C149.937 62.4609 147.91 60.4317 145.409 60.4317C142.908 60.4317 140.881 62.4609 140.881 64.964C140.881 67.4672 142.908 69.4964 145.409 69.4964Z" fill="current"/>
<path d="M155.472 69.4964C157.973 69.4964 160 67.4672 160 64.964C160 62.4609 157.973 60.4317 155.472 60.4317C152.971 60.4317 150.943 62.4609 150.943 64.964C150.943 67.4672 152.971 69.4964 155.472 69.4964Z" fill="current"/>
<path d="M34.717 79.5683C37.2179 79.5683 39.2453 77.5391 39.2453 75.036C39.2453 72.5328 37.2179 70.5036 34.717 70.5036C32.2161 70.5036 30.1887 72.5328 30.1887 75.036C30.1887 77.5391 32.2161 79.5683 34.717 79.5683Z" fill="current"/>
<path d="M44.7799 79.5683C47.2808 79.5683 49.3082 77.5391 49.3082 75.036C49.3082 72.5328 47.2808 70.5036 44.7799 70.5036C42.279 70.5036 40.2516 72.5328 40.2516 75.036C40.2516 77.5391 42.279 79.5683 44.7799 79.5683Z" fill="current"/>
<path d="M54.8428 79.5683C57.3437 79.5683 59.3711 77.5391 59.3711 75.036C59.3711 72.5328 57.3437 70.5036 54.8428 70.5036C52.3419 70.5036 50.3145 72.5328 50.3145 75.036C50.3145 77.5391 52.3419 79.5683 54.8428 79.5683Z" fill="current"/>
<path d="M64.9057 79.5683C67.4066 79.5683 69.434 77.5391 69.434 75.036C69.434 72.5328 67.4066 70.5036 64.9057 70.5036C62.4048 70.5036 60.3774 72.5328 60.3774 75.036C60.3774 77.5391 62.4048 79.5683 64.9057 79.5683Z" fill="current"/>
<path d="M85.0315 79.5683C87.5324 79.5683 89.5598 77.5391 89.5598 75.036C89.5598 72.5328 87.5324 70.5036 85.0315 70.5036C82.5305 70.5036 80.5031 72.5328 80.5031 75.036C80.5031 77.5391 82.5305 79.5683 85.0315 79.5683Z" fill="current"/>
<path d="M95.0943 79.5683C97.5953 79.5683 99.6226 77.5391 99.6226 75.036C99.6226 72.5328 97.5953 70.5036 95.0943 70.5036C92.5934 70.5036 90.566 72.5328 90.566 75.036C90.566 77.5391 92.5934 79.5683 95.0943 79.5683Z" fill="current"/>
<path d="M105.157 79.5683C107.658 79.5683 109.686 77.5391 109.686 75.036C109.686 72.5328 107.658 70.5036 105.157 70.5036C102.656 70.5036 100.629 72.5328 100.629 75.036C100.629 77.5391 102.656 79.5683 105.157 79.5683Z" fill="current"/>
<path d="M115.22 79.5683C117.721 79.5683 119.748 77.5391 119.748 75.036C119.748 72.5328 117.721 70.5036 115.22 70.5036C112.719 70.5036 110.692 72.5328 110.692 75.036C110.692 77.5391 112.719 79.5683 115.22 79.5683Z" fill="current"/>
<path d="M125.283 79.5683C127.784 79.5683 129.811 77.5391 129.811 75.036C129.811 72.5328 127.784 70.5036 125.283 70.5036C122.782 70.5036 120.755 72.5328 120.755 75.036C120.755 77.5391 122.782 79.5683 125.283 79.5683Z" fill="current"/>
<path d="M145.409 79.5683C147.91 79.5683 149.937 77.5391 149.937 75.036C149.937 72.5328 147.91 70.5036 145.409 70.5036C142.908 70.5036 140.881 72.5328 140.881 75.036C140.881 77.5391 142.908 79.5683 145.409 79.5683Z" fill="current"/>
<path d="M155.472 79.5683C157.973 79.5683 160 77.5391 160 75.036C160 72.5328 157.973 70.5036 155.472 70.5036C152.971 70.5036 150.943 72.5328 150.943 75.036C150.943 77.5391 152.971 79.5683 155.472 79.5683Z" fill="current"/>
<path d="M24.6541 89.6403C27.155 89.6403 29.1824 87.6111 29.1824 85.1079C29.1824 82.6048 27.155 80.5755 24.6541 80.5755C22.1532 80.5755 20.1258 82.6048 20.1258 85.1079C20.1258 87.6111 22.1532 89.6403 24.6541 89.6403Z" fill="current"/>
<path d="M34.717 89.6403C37.2179 89.6403 39.2453 87.6111 39.2453 85.1079C39.2453 82.6048 37.2179 80.5755 34.717 80.5755C32.2161 80.5755 30.1887 82.6048 30.1887 85.1079C30.1887 87.6111 32.2161 89.6403 34.717 89.6403Z" fill="current"/>
<path d="M44.7799 89.6403C47.2808 89.6403 49.3082 87.6111 49.3082 85.1079C49.3082 82.6048 47.2808 80.5755 44.7799 80.5755C42.279 80.5755 40.2516 82.6048 40.2516 85.1079C40.2516 87.6111 42.279 89.6403 44.7799 89.6403Z" fill="current"/>
<path d="M54.8428 89.6403C57.3437 89.6403 59.3711 87.6111 59.3711 85.1079C59.3711 82.6048 57.3437 80.5755 54.8428 80.5755C52.3419 80.5755 50.3145 82.6048 50.3145 85.1079C50.3145 87.6111 52.3419 89.6403 54.8428 89.6403Z" fill="current"/>
<path d="M64.9057 89.6403C67.4066 89.6403 69.434 87.6111 69.434 85.1079C69.434 82.6048 67.4066 80.5755 64.9057 80.5755C62.4048 80.5755 60.3774 82.6048 60.3774 85.1079C60.3774 87.6111 62.4048 89.6403 64.9057 89.6403Z" fill="current"/>
<path d="M85.0315 89.6403C87.5324 89.6403 89.5598 87.6111 89.5598 85.1079C89.5598 82.6048 87.5324 80.5755 85.0315 80.5755C82.5305 80.5755 80.5031 82.6048 80.5031 85.1079C80.5031 87.6111 82.5305 89.6403 85.0315 89.6403Z" fill="current"/>
<path d="M95.0943 89.6403C97.5953 89.6403 99.6226 87.6111 99.6226 85.1079C99.6226 82.6048 97.5953 80.5755 95.0943 80.5755C92.5934 80.5755 90.566 82.6048 90.566 85.1079C90.566 87.6111 92.5934 89.6403 95.0943 89.6403Z" fill="current"/>
<path d="M105.157 89.6403C107.658 89.6403 109.686 87.6111 109.686 85.1079C109.686 82.6048 107.658 80.5755 105.157 80.5755C102.656 80.5755 100.629 82.6048 100.629 85.1079C100.629 87.6111 102.656 89.6403 105.157 89.6403Z" fill="current"/>
<path d="M115.22 89.6403C117.721 89.6403 119.748 87.6111 119.748 85.1079C119.748 82.6048 117.721 80.5755 115.22 80.5755C112.719 80.5755 110.692 82.6048 110.692 85.1079C110.692 87.6111 112.719 89.6403 115.22 89.6403Z" fill="current"/>
<path d="M125.283 89.6403C127.784 89.6403 129.811 87.6111 129.811 85.1079C129.811 82.6048 127.784 80.5755 125.283 80.5755C122.782 80.5755 120.755 82.6048 120.755 85.1079C120.755 87.6111 122.782 89.6403 125.283 89.6403Z" fill="current"/>
<path d="M145.409 89.6403C147.91 89.6403 149.937 87.6111 149.937 85.1079C149.937 82.6048 147.91 80.5755 145.409 80.5755C142.908 80.5755 140.881 82.6048 140.881 85.1079C140.881 87.6111 142.908 89.6403 145.409 89.6403Z" fill="current"/>
<path d="M155.472 89.6403C157.973 89.6403 160 87.6111 160 85.1079C160 82.6048 157.973 80.5755 155.472 80.5755C152.971 80.5755 150.943 82.6048 150.943 85.1079C150.943 87.6111 152.971 89.6403 155.472 89.6403Z" fill="current"/>
<path d="M14.5912 99.7122C17.0921 99.7122 19.1195 97.683 19.1195 95.1799C19.1195 92.6767 17.0921 90.6475 14.5912 90.6475C12.0903 90.6475 10.0629 92.6767 10.0629 95.1799C10.0629 97.683 12.0903 99.7122 14.5912 99.7122Z" fill="current"/>
<path d="M24.6541 99.7122C27.155 99.7122 29.1824 97.683 29.1824 95.1799C29.1824 92.6767 27.155 90.6475 24.6541 90.6475C22.1532 90.6475 20.1258 92.6767 20.1258 95.1799C20.1258 97.683 22.1532 99.7122 24.6541 99.7122Z" fill="current"/>
<path d="M34.717 99.7122C37.2179 99.7122 39.2453 97.683 39.2453 95.1799C39.2453 92.6767 37.2179 90.6475 34.717 90.6475C32.2161 90.6475 30.1887 92.6767 30.1887 95.1799C30.1887 97.683 32.2161 99.7122 34.717 99.7122Z" fill="current"/>
<path d="M54.8428 99.7122C57.3437 99.7122 59.3711 97.683 59.3711 95.1799C59.3711 92.6767 57.3437 90.6475 54.8428 90.6475C52.3419 90.6475 50.3145 92.6767 50.3145 95.1799C50.3145 97.683 52.3419 99.7122 54.8428 99.7122Z" fill="current"/>
<path d="M64.9057 99.7122C67.4066 99.7122 69.434 97.683 69.434 95.1799C69.434 92.6767 67.4066 90.6475 64.9057 90.6475C62.4048 90.6475 60.3774 92.6767 60.3774 95.1799C60.3774 97.683 62.4048 99.7122 64.9057 99.7122Z" fill="current"/>
<path d="M85.0315 99.7122C87.5324 99.7122 89.5598 97.683 89.5598 95.1799C89.5598 92.6767 87.5324 90.6475 85.0315 90.6475C82.5305 90.6475 80.5031 92.6767 80.5031 95.1799C80.5031 97.683 82.5305 99.7122 85.0315 99.7122Z" fill="current"/>
<path d="M95.0943 99.7122C97.5953 99.7122 99.6226 97.683 99.6226 95.1799C99.6226 92.6767 97.5953 90.6475 95.0943 90.6475C92.5934 90.6475 90.566 92.6767 90.566 95.1799C90.566 97.683 92.5934 99.7122 95.0943 99.7122Z" fill="current"/>
<path d="M105.157 99.7122C107.658 99.7122 109.686 97.683 109.686 95.1799C109.686 92.6767 107.658 90.6475 105.157 90.6475C102.656 90.6475 100.629 92.6767 100.629 95.1799C100.629 97.683 102.656 99.7122 105.157 99.7122Z" fill="current"/>
<path d="M115.22 99.7122C117.721 99.7122 119.748 97.683 119.748 95.1799C119.748 92.6767 117.721 90.6475 115.22 90.6475C112.719 90.6475 110.692 92.6767 110.692 95.1799C110.692 97.683 112.719 99.7122 115.22 99.7122Z" fill="current"/>
<path d="M125.283 99.7122C127.784 99.7122 129.811 97.683 129.811 95.1799C129.811 92.6767 127.784 90.6475 125.283 90.6475C122.782 90.6475 120.755 92.6767 120.755 95.1799C120.755 97.683 122.782 99.7122 125.283 99.7122Z" fill="current"/>
<path d="M145.409 99.7122C147.91 99.7122 149.937 97.683 149.937 95.1799C149.937 92.6767 147.91 90.6475 145.409 90.6475C142.908 90.6475 140.881 92.6767 140.881 95.1799C140.881 97.683 142.908 99.7122 145.409 99.7122Z" fill="current"/>
<path d="M155.472 99.7122C157.973 99.7122 160 97.683 160 95.1799C160 92.6767 157.973 90.6475 155.472 90.6475C152.971 90.6475 150.943 92.6767 150.943 95.1799C150.943 97.683 152.971 99.7122 155.472 99.7122Z" fill="current"/>
<path d="M4.5283 109.784C7.02921 109.784 9.0566 107.755 9.0566 105.252C9.0566 102.749 7.02921 100.719 4.5283 100.719C2.02739 100.719 0 102.749 0 105.252C0 107.755 2.02739 109.784 4.5283 109.784Z" fill="current"/>
<path d="M14.5912 109.784C17.0921 109.784 19.1195 107.755 19.1195 105.252C19.1195 102.749 17.0921 100.719 14.5912 100.719C12.0903 100.719 10.0629 102.749 10.0629 105.252C10.0629 107.755 12.0903 109.784 14.5912 109.784Z" fill="current"/>
<path d="M24.6541 109.784C27.155 109.784 29.1824 107.755 29.1824 105.252C29.1824 102.749 27.155 100.719 24.6541 100.719C22.1532 100.719 20.1258 102.749 20.1258 105.252C20.1258 107.755 22.1532 109.784 24.6541 109.784Z" fill="current"/>
<path d="M54.8428 109.784C57.3437 109.784 59.3711 107.755 59.3711 105.252C59.3711 102.749 57.3437 100.719 54.8428 100.719C52.3419 100.719 50.3145 102.749 50.3145 105.252C50.3145 107.755 52.3419 109.784 54.8428 109.784Z" fill="current"/>
<path d="M64.9057 109.784C67.4066 109.784 69.434 107.755 69.434 105.252C69.434 102.749 67.4066 100.719 64.9057 100.719C62.4048 100.719 60.3774 102.749 60.3774 105.252C60.3774 107.755 62.4048 109.784 64.9057 109.784Z" fill="current"/>
<path d="M95.0943 109.784C97.5953 109.784 99.6226 107.755 99.6226 105.252C99.6226 102.749 97.5953 100.719 95.0943 100.719C92.5934 100.719 90.566 102.749 90.566 105.252C90.566 107.755 92.5934 109.784 95.0943 109.784Z" fill="current"/>
<path d="M105.157 109.784C107.658 109.784 109.686 107.755 109.686 105.252C109.686 102.749 107.658 100.719 105.157 100.719C102.656 100.719 100.629 102.749 100.629 105.252C100.629 107.755 102.656 109.784 105.157 109.784Z" fill="current"/>
<path d="M115.22 109.784C117.721 109.784 119.748 107.755 119.748 105.252C119.748 102.749 117.721 100.719 115.22 100.719C112.719 100.719 110.692 102.749 110.692 105.252C110.692 107.755 112.719 109.784 115.22 109.784Z" fill="current"/>
<path d="M145.409 109.784C147.91 109.784 149.937 107.755 149.937 105.252C149.937 102.749 147.91 100.719 145.409 100.719C142.908 100.719 140.881 102.749 140.881 105.252C140.881 107.755 142.908 109.784 145.409 109.784Z" fill="current"/>
<path d="M155.472 109.784C157.973 109.784 160 107.755 160 105.252C160 102.749 157.973 100.719 155.472 100.719C152.971 100.719 150.943 102.749 150.943 105.252C150.943 107.755 152.971 109.784 155.472 109.784Z" fill="current"/>
<path d="M4.5283 119.856C7.02921 119.856 9.0566 117.827 9.0566 115.324C9.0566 112.821 7.02921 110.791 4.5283 110.791C2.02739 110.791 0 112.821 0 115.324C0 117.827 2.02739 119.856 4.5283 119.856Z" fill="current"/>
<path d="M14.5912 119.856C17.0921 119.856 19.1195 117.827 19.1195 115.324C19.1195 112.821 17.0921 110.791 14.5912 110.791C12.0903 110.791 10.0629 112.821 10.0629 115.324C10.0629 117.827 12.0903 119.856 14.5912 119.856Z" fill="current"/>
<path d="M64.9057 119.856C67.4066 119.856 69.434 117.827 69.434 115.324C69.434 112.821 67.4066 110.791 64.9057 110.791C62.4048 110.791 60.3774 112.821 60.3774 115.324C60.3774 117.827 62.4048 119.856 64.9057 119.856Z" fill="current"/>
<path d="M74.9686 119.856C77.4695 119.856 79.4969 117.827 79.4969 115.324C79.4969 112.821 77.4695 110.791 74.9686 110.791C72.4676 110.791 70.4403 112.821 70.4403 115.324C70.4403 117.827 72.4676 119.856 74.9686 119.856Z" fill="current"/>
<path d="M135.346 119.856C137.847 119.856 139.874 117.827 139.874 115.324C139.874 112.821 137.847 110.791 135.346 110.791C132.845 110.791 130.818 112.821 130.818 115.324C130.818 117.827 132.845 119.856 135.346 119.856Z" fill="current"/>
<path d="M145.409 119.856C147.91 119.856 149.937 117.827 149.937 115.324C149.937 112.821 147.91 110.791 145.409 110.791C142.908 110.791 140.881 112.821 140.881 115.324C140.881 117.827 142.908 119.856 145.409 119.856Z" fill="current"/>
<path d="M74.9686 129.928C77.4695 129.928 79.4969 127.899 79.4969 125.396C79.4969 122.893 77.4695 120.863 74.9686 120.863C72.4676 120.863 70.4403 122.893 70.4403 125.396C70.4403 127.899 72.4676 129.928 74.9686 129.928Z" fill="current"/>
<path d="M85.0315 129.928C87.5324 129.928 89.5598 127.899 89.5598 125.396C89.5598 122.893 87.5324 120.863 85.0315 120.863C82.5305 120.863 80.5031 122.893 80.5031 125.396C80.5031 127.899 82.5305 129.928 85.0315 129.928Z" fill="current"/>
<path d="M95.0943 129.928C97.5953 129.928 99.6226 127.899 99.6226 125.396C99.6226 122.893 97.5953 120.863 95.0943 120.863C92.5934 120.863 90.566 122.893 90.566 125.396C90.566 127.899 92.5934 129.928 95.0943 129.928Z" fill="current"/>
<path d="M105.157 129.928C107.658 129.928 109.686 127.899 109.686 125.396C109.686 122.893 107.658 120.863 105.157 120.863C102.656 120.863 100.629 122.893 100.629 125.396C100.629 127.899 102.656 129.928 105.157 129.928Z" fill="current"/>
<path d="M115.22 129.928C117.721 129.928 119.748 127.899 119.748 125.396C119.748 122.893 117.721 120.863 115.22 120.863C112.719 120.863 110.692 122.893 110.692 125.396C110.692 127.899 112.719 129.928 115.22 129.928Z" fill="current"/>
<path d="M125.283 129.928C127.784 129.928 129.811 127.899 129.811 125.396C129.811 122.893 127.784 120.863 125.283 120.863C122.782 120.863 120.755 122.893 120.755 125.396C120.755 127.899 122.782 129.928 125.283 129.928Z" fill="current"/>
<path d="M135.346 129.928C137.847 129.928 139.874 127.899 139.874 125.396C139.874 122.893 137.847 120.863 135.346 120.863C132.845 120.863 130.818 122.893 130.818 125.396C130.818 127.899 132.845 129.928 135.346 129.928Z" fill="current"/>
<path d="M85.0315 140C87.5324 140 89.5598 137.971 89.5598 135.468C89.5598 132.964 87.5324 130.935 85.0315 130.935C82.5305 130.935 80.5031 132.964 80.5031 135.468C80.5031 137.971 82.5305 140 85.0315 140Z" fill="current"/>
<path d="M95.0943 140C97.5953 140 99.6226 137.971 99.6226 135.468C99.6226 132.964 97.5953 130.935 95.0943 130.935C92.5934 130.935 90.566 132.964 90.566 135.468C90.566 137.971 92.5934 140 95.0943 140Z" fill="current"/>
<path d="M105.157 140C107.658 140 109.686 137.971 109.686 135.468C109.686 132.964 107.658 130.935 105.157 130.935C102.656 130.935 100.629 132.964 100.629 135.468C100.629 137.971 102.656 140 105.157 140Z" fill="current"/>
<path d="M115.22 140C117.721 140 119.748 137.971 119.748 135.468C119.748 132.964 117.721 130.935 115.22 130.935C112.719 130.935 110.692 132.964 110.692 135.468C110.692 137.971 112.719 140 115.22 140Z" fill="current"/>
<path d="M125.283 140C127.784 140 129.811 137.971 129.811 135.468C129.811 132.964 127.784 130.935 125.283 130.935C122.782 130.935 120.755 132.964 120.755 135.468C120.755 137.971 122.782 140 125.283 140Z" fill="current"/>
</svg>
