<svg width="160" height="160" viewBox="0 0 160 160" fill="none" xmlns="http://www.w3.org/2000/svg">
<path d="M14.5912 9.0566C17.0921 9.0566 19.1195 7.02921 19.1195 4.5283C19.1195 2.02739 17.0921 0 14.5912 0C12.0903 0 10.0629 2.02739 10.0629 4.5283C10.0629 7.02921 12.0903 9.0566 14.5912 9.0566Z" fill="current"/>
<path d="M24.6541 9.0566C27.155 9.0566 29.1824 7.02921 29.1824 4.5283C29.1824 2.02739 27.155 0 24.6541 0C22.1532 0 20.1258 2.02739 20.1258 4.5283C20.1258 7.02921 22.1532 9.0566 24.6541 9.0566Z" fill="current"/>
<path d="M34.717 9.0566C37.2179 9.0566 39.2453 7.02921 39.2453 4.5283C39.2453 2.02739 37.2179 0 34.717 0C32.2161 0 30.1887 2.02739 30.1887 4.5283C30.1887 7.02921 32.2161 9.0566 34.717 9.0566Z" fill="current"/>
<path d="M44.7799 9.0566C47.2808 9.0566 49.3082 7.02921 49.3082 4.5283C49.3082 2.02739 47.2808 0 44.7799 0C42.279 0 40.2516 2.02739 40.2516 4.5283C40.2516 7.02921 42.279 9.0566 44.7799 9.0566Z" fill="current"/>
<path d="M54.8428 9.0566C57.3437 9.0566 59.3711 7.02921 59.3711 4.5283C59.3711 2.02739 57.3437 0 54.8428 0C52.3419 0 50.3145 2.02739 50.3145 4.5283C50.3145 7.02921 52.3419 9.0566 54.8428 9.0566Z" fill="current"/>
<path d="M64.9057 9.0566C67.4066 9.0566 69.434 7.02921 69.434 4.5283C69.434 2.02739 67.4066 0 64.9057 0C62.4048 0 60.3774 2.02739 60.3774 4.5283C60.3774 7.02921 62.4048 9.0566 64.9057 9.0566Z" fill="current"/>
<path d="M74.9686 9.0566C77.4695 9.0566 79.4969 7.02921 79.4969 4.5283C79.4969 2.02739 77.4695 0 74.9686 0C72.4676 0 70.4403 2.02739 70.4403 4.5283C70.4403 7.02921 72.4676 9.0566 74.9686 9.0566Z" fill="current"/>
<path d="M85.0315 9.0566C87.5324 9.0566 89.5598 7.02921 89.5598 4.5283C89.5598 2.02739 87.5324 0 85.0315 0C82.5305 0 80.5031 2.02739 80.5031 4.5283C80.5031 7.02921 82.5305 9.0566 85.0315 9.0566Z" fill="current"/>
<path d="M95.0943 9.0566C97.5953 9.0566 99.6226 7.02921 99.6226 4.5283C99.6226 2.02739 97.5953 0 95.0943 0C92.5934 0 90.566 2.02739 90.566 4.5283C90.566 7.02921 92.5934 9.0566 95.0943 9.0566Z" fill="current"/>
<path d="M105.157 9.0566C107.658 9.0566 109.686 7.02921 109.686 4.5283C109.686 2.02739 107.658 0 105.157 0C102.656 0 100.629 2.02739 100.629 4.5283C100.629 7.02921 102.656 9.0566 105.157 9.0566Z" fill="current"/>
<path d="M115.22 9.0566C117.721 9.0566 119.748 7.02921 119.748 4.5283C119.748 2.02739 117.721 0 115.22 0C112.719 0 110.692 2.02739 110.692 4.5283C110.692 7.02921 112.719 9.0566 115.22 9.0566Z" fill="current"/>
<path d="M125.283 9.0566C127.784 9.0566 129.811 7.02921 129.811 4.5283C129.811 2.02739 127.784 0 125.283 0C122.782 0 120.755 2.02739 120.755 4.5283C120.755 7.02921 122.782 9.0566 125.283 9.0566Z" fill="current"/>
<path d="M135.346 9.0566C137.847 9.0566 139.874 7.02921 139.874 4.5283C139.874 2.02739 137.847 0 135.346 0C132.845 0 130.818 2.02739 130.818 4.5283C130.818 7.02921 132.845 9.0566 135.346 9.0566Z" fill="current"/>
<path d="M145.409 9.0566C147.91 9.0566 149.937 7.02921 149.937 4.5283C149.937 2.02739 147.91 0 145.409 0C142.908 0 140.881 2.02739 140.881 4.5283C140.881 7.02921 142.908 9.0566 145.409 9.0566Z" fill="current"/>
<path d="M4.5283 19.1195C7.02921 19.1195 9.0566 17.0921 9.0566 14.5912C9.0566 12.0903 7.02921 10.0629 4.5283 10.0629C2.02739 10.0629 0 12.0903 0 14.5912C0 17.0921 2.02739 19.1195 4.5283 19.1195Z" fill="current"/>
<path d="M14.5912 19.1195C17.0921 19.1195 19.1195 17.0921 19.1195 14.5912C19.1195 12.0903 17.0921 10.0629 14.5912 10.0629C12.0903 10.0629 10.0629 12.0903 10.0629 14.5912C10.0629 17.0921 12.0903 19.1195 14.5912 19.1195Z" fill="current"/>
<path d="M24.6541 19.1195C27.155 19.1195 29.1824 17.0921 29.1824 14.5912C29.1824 12.0903 27.155 10.0629 24.6541 10.0629C22.1532 10.0629 20.1258 12.0903 20.1258 14.5912C20.1258 17.0921 22.1532 19.1195 24.6541 19.1195Z" fill="current"/>
<path d="M34.717 19.1195C37.2179 19.1195 39.2453 17.0921 39.2453 14.5912C39.2453 12.0903 37.2179 10.0629 34.717 10.0629C32.2161 10.0629 30.1887 12.0903 30.1887 14.5912C30.1887 17.0921 32.2161 19.1195 34.717 19.1195Z" fill="current"/>
<path d="M44.7799 19.1195C47.2808 19.1195 49.3082 17.0921 49.3082 14.5912C49.3082 12.0903 47.2808 10.0629 44.7799 10.0629C42.279 10.0629 40.2516 12.0903 40.2516 14.5912C40.2516 17.0921 42.279 19.1195 44.7799 19.1195Z" fill="current"/>
<path d="M54.8428 19.1195C57.3437 19.1195 59.3711 17.0921 59.3711 14.5912C59.3711 12.0903 57.3437 10.0629 54.8428 10.0629C52.3419 10.0629 50.3145 12.0903 50.3145 14.5912C50.3145 17.0921 52.3419 19.1195 54.8428 19.1195Z" fill="current"/>
<path d="M64.9057 19.1195C67.4066 19.1195 69.434 17.0921 69.434 14.5912C69.434 12.0903 67.4066 10.0629 64.9057 10.0629C62.4048 10.0629 60.3774 12.0903 60.3774 14.5912C60.3774 17.0921 62.4048 19.1195 64.9057 19.1195Z" fill="current"/>
<path d="M74.9686 19.1195C77.4695 19.1195 79.4969 17.0921 79.4969 14.5912C79.4969 12.0903 77.4695 10.0629 74.9686 10.0629C72.4676 10.0629 70.4403 12.0903 70.4403 14.5912C70.4403 17.0921 72.4676 19.1195 74.9686 19.1195Z" fill="current"/>
<path d="M85.0315 19.1195C87.5324 19.1195 89.5598 17.0921 89.5598 14.5912C89.5598 12.0903 87.5324 10.0629 85.0315 10.0629C82.5305 10.0629 80.5031 12.0903 80.5031 14.5912C80.5031 17.0921 82.5305 19.1195 85.0315 19.1195Z" fill="current"/>
<path d="M95.0943 19.1195C97.5953 19.1195 99.6226 17.0921 99.6226 14.5912C99.6226 12.0903 97.5953 10.0629 95.0943 10.0629C92.5934 10.0629 90.566 12.0903 90.566 14.5912C90.566 17.0921 92.5934 19.1195 95.0943 19.1195Z" fill="current"/>
<path d="M105.157 19.1195C107.658 19.1195 109.686 17.0921 109.686 14.5912C109.686 12.0903 107.658 10.0629 105.157 10.0629C102.656 10.0629 100.629 12.0903 100.629 14.5912C100.629 17.0921 102.656 19.1195 105.157 19.1195Z" fill="current"/>
<path d="M115.22 19.1195C117.721 19.1195 119.748 17.0921 119.748 14.5912C119.748 12.0903 117.721 10.0629 115.22 10.0629C112.719 10.0629 110.692 12.0903 110.692 14.5912C110.692 17.0921 112.719 19.1195 115.22 19.1195Z" fill="current"/>
<path d="M125.283 19.1195C127.784 19.1195 129.811 17.0921 129.811 14.5912C129.811 12.0903 127.784 10.0629 125.283 10.0629C122.782 10.0629 120.755 12.0903 120.755 14.5912C120.755 17.0921 122.782 19.1195 125.283 19.1195Z" fill="current"/>
<path d="M135.346 19.1195C137.847 19.1195 139.874 17.0921 139.874 14.5912C139.874 12.0903 137.847 10.0629 135.346 10.0629C132.845 10.0629 130.818 12.0903 130.818 14.5912C130.818 17.0921 132.845 19.1195 135.346 19.1195Z" fill="current"/>
<path d="M145.409 19.1195C147.91 19.1195 149.937 17.0921 149.937 14.5912C149.937 12.0903 147.91 10.0629 145.409 10.0629C142.908 10.0629 140.881 12.0903 140.881 14.5912C140.881 17.0921 142.908 19.1195 145.409 19.1195Z" fill="current"/>
<path d="M155.472 19.1195C157.973 19.1195 160 17.0921 160 14.5912C160 12.0903 157.973 10.0629 155.472 10.0629C152.971 10.0629 150.943 12.0903 150.943 14.5912C150.943 17.0921 152.971 19.1195 155.472 19.1195Z" fill="current"/>
<path d="M4.5283 29.1824C7.02921 29.1824 9.0566 27.155 9.0566 24.6541C9.0566 22.1532 7.02921 20.1258 4.5283 20.1258C2.02739 20.1258 0 22.1532 0 24.6541C0 27.155 2.02739 29.1824 4.5283 29.1824Z" fill="current"/>
<path d="M14.5912 29.1824C17.0921 29.1824 19.1195 27.155 19.1195 24.6541C19.1195 22.1532 17.0921 20.1258 14.5912 20.1258C12.0903 20.1258 10.0629 22.1532 10.0629 24.6541C10.0629 27.155 12.0903 29.1824 14.5912 29.1824Z" fill="current"/>
<path d="M24.6541 29.1824C27.155 29.1824 29.1824 27.155 29.1824 24.6541C29.1824 22.1532 27.155 20.1258 24.6541 20.1258C22.1532 20.1258 20.1258 22.1532 20.1258 24.6541C20.1258 27.155 22.1532 29.1824 24.6541 29.1824Z" fill="current"/>
<path d="M34.717 29.1824C37.2179 29.1824 39.2453 27.155 39.2453 24.6541C39.2453 22.1532 37.2179 20.1258 34.717 20.1258C32.2161 20.1258 30.1887 22.1532 30.1887 24.6541C30.1887 27.155 32.2161 29.1824 34.717 29.1824Z" fill="current"/>
<path d="M44.7799 29.1824C47.2808 29.1824 49.3082 27.155 49.3082 24.6541C49.3082 22.1532 47.2808 20.1258 44.7799 20.1258C42.279 20.1258 40.2516 22.1532 40.2516 24.6541C40.2516 27.155 42.279 29.1824 44.7799 29.1824Z" fill="current"/>
<path d="M54.8428 29.1824C57.3437 29.1824 59.3711 27.155 59.3711 24.6541C59.3711 22.1532 57.3437 20.1258 54.8428 20.1258C52.3419 20.1258 50.3145 22.1532 50.3145 24.6541C50.3145 27.155 52.3419 29.1824 54.8428 29.1824Z" fill="current"/>
<path d="M64.9057 29.1824C67.4066 29.1824 69.434 27.155 69.434 24.6541C69.434 22.1532 67.4066 20.1258 64.9057 20.1258C62.4048 20.1258 60.3774 22.1532 60.3774 24.6541C60.3774 27.155 62.4048 29.1824 64.9057 29.1824Z" fill="current"/>
<path d="M74.9686 29.1824C77.4695 29.1824 79.4969 27.155 79.4969 24.6541C79.4969 22.1532 77.4695 20.1258 74.9686 20.1258C72.4676 20.1258 70.4403 22.1532 70.4403 24.6541C70.4403 27.155 72.4676 29.1824 74.9686 29.1824Z" fill="current"/>
<path d="M85.0315 29.1824C87.5324 29.1824 89.5598 27.155 89.5598 24.6541C89.5598 22.1532 87.5324 20.1258 85.0315 20.1258C82.5305 20.1258 80.5031 22.1532 80.5031 24.6541C80.5031 27.155 82.5305 29.1824 85.0315 29.1824Z" fill="current"/>
<path d="M95.0943 29.1824C97.5953 29.1824 99.6226 27.155 99.6226 24.6541C99.6226 22.1532 97.5953 20.1258 95.0943 20.1258C92.5934 20.1258 90.566 22.1532 90.566 24.6541C90.566 27.155 92.5934 29.1824 95.0943 29.1824Z" fill="current"/>
<path d="M105.157 29.1824C107.658 29.1824 109.686 27.155 109.686 24.6541C109.686 22.1532 107.658 20.1258 105.157 20.1258C102.656 20.1258 100.629 22.1532 100.629 24.6541C100.629 27.155 102.656 29.1824 105.157 29.1824Z" fill="current"/>
<path d="M115.22 29.1824C117.721 29.1824 119.748 27.155 119.748 24.6541C119.748 22.1532 117.721 20.1258 115.22 20.1258C112.719 20.1258 110.692 22.1532 110.692 24.6541C110.692 27.155 112.719 29.1824 115.22 29.1824Z" fill="current"/>
<path d="M125.283 29.1824C127.784 29.1824 129.811 27.155 129.811 24.6541C129.811 22.1532 127.784 20.1258 125.283 20.1258C122.782 20.1258 120.755 22.1532 120.755 24.6541C120.755 27.155 122.782 29.1824 125.283 29.1824Z" fill="current"/>
<path d="M135.346 29.1824C137.847 29.1824 139.874 27.155 139.874 24.6541C139.874 22.1532 137.847 20.1258 135.346 20.1258C132.845 20.1258 130.818 22.1532 130.818 24.6541C130.818 27.155 132.845 29.1824 135.346 29.1824Z" fill="current"/>
<path d="M145.409 29.1824C147.91 29.1824 149.937 27.155 149.937 24.6541C149.937 22.1532 147.91 20.1258 145.409 20.1258C142.908 20.1258 140.881 22.1532 140.881 24.6541C140.881 27.155 142.908 29.1824 145.409 29.1824Z" fill="current"/>
<path d="M155.472 29.1824C157.973 29.1824 160 27.155 160 24.6541C160 22.1532 157.973 20.1258 155.472 20.1258C152.971 20.1258 150.943 22.1532 150.943 24.6541C150.943 27.155 152.971 29.1824 155.472 29.1824Z" fill="current"/>
<path d="M4.5283 39.2453C7.02921 39.2453 9.0566 37.2179 9.0566 34.717C9.0566 32.2161 7.02921 30.1887 4.5283 30.1887C2.02739 30.1887 0 32.2161 0 34.717C0 37.2179 2.02739 39.2453 4.5283 39.2453Z" fill="current"/>
<path d="M14.5912 39.2453C17.0921 39.2453 19.1195 37.2179 19.1195 34.717C19.1195 32.2161 17.0921 30.1887 14.5912 30.1887C12.0903 30.1887 10.0629 32.2161 10.0629 34.717C10.0629 37.2179 12.0903 39.2453 14.5912 39.2453Z" fill="current"/>
<path d="M24.6541 39.2453C27.155 39.2453 29.1824 37.2179 29.1824 34.717C29.1824 32.2161 27.155 30.1887 24.6541 30.1887C22.1532 30.1887 20.1258 32.2161 20.1258 34.717C20.1258 37.2179 22.1532 39.2453 24.6541 39.2453Z" fill="current"/>
<path d="M34.717 39.2453C37.2179 39.2453 39.2453 37.2179 39.2453 34.717C39.2453 32.2161 37.2179 30.1887 34.717 30.1887C32.2161 30.1887 30.1887 32.2161 30.1887 34.717C30.1887 37.2179 32.2161 39.2453 34.717 39.2453Z" fill="current"/>
<path d="M44.7799 39.2453C47.2808 39.2453 49.3082 37.2179 49.3082 34.717C49.3082 32.2161 47.2808 30.1887 44.7799 30.1887C42.279 30.1887 40.2516 32.2161 40.2516 34.717C40.2516 37.2179 42.279 39.2453 44.7799 39.2453Z" fill="current"/>
<path d="M54.8428 39.2453C57.3437 39.2453 59.3711 37.2179 59.3711 34.717C59.3711 32.2161 57.3437 30.1887 54.8428 30.1887C52.3419 30.1887 50.3145 32.2161 50.3145 34.717C50.3145 37.2179 52.3419 39.2453 54.8428 39.2453Z" fill="current"/>
<path d="M64.9057 39.2453C67.4066 39.2453 69.434 37.2179 69.434 34.717C69.434 32.2161 67.4066 30.1887 64.9057 30.1887C62.4048 30.1887 60.3774 32.2161 60.3774 34.717C60.3774 37.2179 62.4048 39.2453 64.9057 39.2453Z" fill="current"/>
<path d="M74.9686 39.2453C77.4695 39.2453 79.4969 37.2179 79.4969 34.717C79.4969 32.2161 77.4695 30.1887 74.9686 30.1887C72.4676 30.1887 70.4403 32.2161 70.4403 34.717C70.4403 37.2179 72.4676 39.2453 74.9686 39.2453Z" fill="current"/>
<path d="M85.0315 39.2453C87.5324 39.2453 89.5598 37.2179 89.5598 34.717C89.5598 32.2161 87.5324 30.1887 85.0315 30.1887C82.5305 30.1887 80.5031 32.2161 80.5031 34.717C80.5031 37.2179 82.5305 39.2453 85.0315 39.2453Z" fill="current"/>
<path d="M95.0943 39.2453C97.5953 39.2453 99.6226 37.2179 99.6226 34.717C99.6226 32.2161 97.5953 30.1887 95.0943 30.1887C92.5934 30.1887 90.566 32.2161 90.566 34.717C90.566 37.2179 92.5934 39.2453 95.0943 39.2453Z" fill="current"/>
<path d="M105.157 39.2453C107.658 39.2453 109.686 37.2179 109.686 34.717C109.686 32.2161 107.658 30.1887 105.157 30.1887C102.656 30.1887 100.629 32.2161 100.629 34.717C100.629 37.2179 102.656 39.2453 105.157 39.2453Z" fill="current"/>
<path d="M115.22 39.2453C117.721 39.2453 119.748 37.2179 119.748 34.717C119.748 32.2161 117.721 30.1887 115.22 30.1887C112.719 30.1887 110.692 32.2161 110.692 34.717C110.692 37.2179 112.719 39.2453 115.22 39.2453Z" fill="current"/>
<path d="M125.283 39.2453C127.784 39.2453 129.811 37.2179 129.811 34.717C129.811 32.2161 127.784 30.1887 125.283 30.1887C122.782 30.1887 120.755 32.2161 120.755 34.717C120.755 37.2179 122.782 39.2453 125.283 39.2453Z" fill="current"/>
<path d="M135.346 39.2453C137.847 39.2453 139.874 37.2179 139.874 34.717C139.874 32.2161 137.847 30.1887 135.346 30.1887C132.845 30.1887 130.818 32.2161 130.818 34.717C130.818 37.2179 132.845 39.2453 135.346 39.2453Z" fill="current"/>
<path d="M145.409 39.2453C147.91 39.2453 149.937 37.2179 149.937 34.717C149.937 32.2161 147.91 30.1887 145.409 30.1887C142.908 30.1887 140.881 32.2161 140.881 34.717C140.881 37.2179 142.908 39.2453 145.409 39.2453Z" fill="current"/>
<path d="M155.472 39.2453C157.973 39.2453 160 37.2179 160 34.717C160 32.2161 157.973 30.1887 155.472 30.1887C152.971 30.1887 150.943 32.2161 150.943 34.717C150.943 37.2179 152.971 39.2453 155.472 39.2453Z" fill="current"/>
<path d="M4.5283 49.3082C7.02921 49.3082 9.0566 47.2808 9.0566 44.7799C9.0566 42.279 7.02921 40.2516 4.5283 40.2516C2.02739 40.2516 0 42.279 0 44.7799C0 47.2808 2.02739 49.3082 4.5283 49.3082Z" fill="current"/>
<path d="M14.5912 49.3082C17.0921 49.3082 19.1195 47.2808 19.1195 44.7799C19.1195 42.279 17.0921 40.2516 14.5912 40.2516C12.0903 40.2516 10.0629 42.279 10.0629 44.7799C10.0629 47.2808 12.0903 49.3082 14.5912 49.3082Z" fill="current"/>
<path d="M24.6541 49.3082C27.155 49.3082 29.1824 47.2808 29.1824 44.7799C29.1824 42.279 27.155 40.2516 24.6541 40.2516C22.1532 40.2516 20.1258 42.279 20.1258 44.7799C20.1258 47.2808 22.1532 49.3082 24.6541 49.3082Z" fill="current"/>
<path d="M34.717 49.3082C37.2179 49.3082 39.2453 47.2808 39.2453 44.7799C39.2453 42.279 37.2179 40.2516 34.717 40.2516C32.2161 40.2516 30.1887 42.279 30.1887 44.7799C30.1887 47.2808 32.2161 49.3082 34.717 49.3082Z" fill="current"/>
<path d="M44.7799 49.3082C47.2808 49.3082 49.3082 47.2808 49.3082 44.7799C49.3082 42.279 47.2808 40.2516 44.7799 40.2516C42.279 40.2516 40.2516 42.279 40.2516 44.7799C40.2516 47.2808 42.279 49.3082 44.7799 49.3082Z" fill="current"/>
<path d="M54.8428 49.3082C57.3437 49.3082 59.3711 47.2808 59.3711 44.7799C59.3711 42.279 57.3437 40.2516 54.8428 40.2516C52.3419 40.2516 50.3145 42.279 50.3145 44.7799C50.3145 47.2808 52.3419 49.3082 54.8428 49.3082Z" fill="current"/>
<path d="M64.9057 49.3082C67.4066 49.3082 69.434 47.2808 69.434 44.7799C69.434 42.279 67.4066 40.2516 64.9057 40.2516C62.4048 40.2516 60.3774 42.279 60.3774 44.7799C60.3774 47.2808 62.4048 49.3082 64.9057 49.3082Z" fill="current"/>
<path d="M74.9686 49.3082C77.4695 49.3082 79.4969 47.2808 79.4969 44.7799C79.4969 42.279 77.4695 40.2516 74.9686 40.2516C72.4676 40.2516 70.4403 42.279 70.4403 44.7799C70.4403 47.2808 72.4676 49.3082 74.9686 49.3082Z" fill="current"/>
<path d="M85.0315 49.3082C87.5324 49.3082 89.5598 47.2808 89.5598 44.7799C89.5598 42.279 87.5324 40.2516 85.0315 40.2516C82.5305 40.2516 80.5031 42.279 80.5031 44.7799C80.5031 47.2808 82.5305 49.3082 85.0315 49.3082Z" fill="current"/>
<path d="M95.0943 49.3082C97.5953 49.3082 99.6226 47.2808 99.6226 44.7799C99.6226 42.279 97.5953 40.2516 95.0943 40.2516C92.5934 40.2516 90.566 42.279 90.566 44.7799C90.566 47.2808 92.5934 49.3082 95.0943 49.3082Z" fill="current"/>
<path d="M105.157 49.3082C107.658 49.3082 109.686 47.2808 109.686 44.7799C109.686 42.279 107.658 40.2516 105.157 40.2516C102.656 40.2516 100.629 42.279 100.629 44.7799C100.629 47.2808 102.656 49.3082 105.157 49.3082Z" fill="current"/>
<path d="M115.22 49.3082C117.721 49.3082 119.748 47.2808 119.748 44.7799C119.748 42.279 117.721 40.2516 115.22 40.2516C112.719 40.2516 110.692 42.279 110.692 44.7799C110.692 47.2808 112.719 49.3082 115.22 49.3082Z" fill="current"/>
<path d="M125.283 49.3082C127.784 49.3082 129.811 47.2808 129.811 44.7799C129.811 42.279 127.784 40.2516 125.283 40.2516C122.782 40.2516 120.755 42.279 120.755 44.7799C120.755 47.2808 122.782 49.3082 125.283 49.3082Z" fill="current"/>
<path d="M135.346 49.3082C137.847 49.3082 139.874 47.2808 139.874 44.7799C139.874 42.279 137.847 40.2516 135.346 40.2516C132.845 40.2516 130.818 42.279 130.818 44.7799C130.818 47.2808 132.845 49.3082 135.346 49.3082Z" fill="current"/>
<path d="M145.409 49.3082C147.91 49.3082 149.937 47.2808 149.937 44.7799C149.937 42.279 147.91 40.2516 145.409 40.2516C142.908 40.2516 140.881 42.279 140.881 44.7799C140.881 47.2808 142.908 49.3082 145.409 49.3082Z" fill="current"/>
<path d="M155.472 49.3082C157.973 49.3082 160 47.2808 160 44.7799C160 42.279 157.973 40.2516 155.472 40.2516C152.971 40.2516 150.943 42.279 150.943 44.7799C150.943 47.2808 152.971 49.3082 155.472 49.3082Z" fill="current"/>
<path d="M4.5283 59.3711C7.02921 59.3711 9.0566 57.3437 9.0566 54.8428C9.0566 52.3419 7.02921 50.3145 4.5283 50.3145C2.02739 50.3145 0 52.3419 0 54.8428C0 57.3437 2.02739 59.3711 4.5283 59.3711Z" fill="current"/>
<path d="M14.5912 59.3711C17.0921 59.3711 19.1195 57.3437 19.1195 54.8428C19.1195 52.3419 17.0921 50.3145 14.5912 50.3145C12.0903 50.3145 10.0629 52.3419 10.0629 54.8428C10.0629 57.3437 12.0903 59.3711 14.5912 59.3711Z" fill="current"/>
<path d="M24.6541 59.3711C27.155 59.3711 29.1824 57.3437 29.1824 54.8428C29.1824 52.3419 27.155 50.3145 24.6541 50.3145C22.1532 50.3145 20.1258 52.3419 20.1258 54.8428C20.1258 57.3437 22.1532 59.3711 24.6541 59.3711Z" fill="current"/>
<path d="M34.717 59.3711C37.2179 59.3711 39.2453 57.3437 39.2453 54.8428C39.2453 52.3419 37.2179 50.3145 34.717 50.3145C32.2161 50.3145 30.1887 52.3419 30.1887 54.8428C30.1887 57.3437 32.2161 59.3711 34.717 59.3711Z" fill="current"/>
<path d="M44.7799 59.3711C47.2808 59.3711 49.3082 57.3437 49.3082 54.8428C49.3082 52.3419 47.2808 50.3145 44.7799 50.3145C42.279 50.3145 40.2516 52.3419 40.2516 54.8428C40.2516 57.3437 42.279 59.3711 44.7799 59.3711Z" fill="current"/>
<path d="M54.8428 59.3711C57.3437 59.3711 59.3711 57.3437 59.3711 54.8428C59.3711 52.3419 57.3437 50.3145 54.8428 50.3145C52.3419 50.3145 50.3145 52.3419 50.3145 54.8428C50.3145 57.3437 52.3419 59.3711 54.8428 59.3711Z" fill="current"/>
<path d="M64.9057 59.3711C67.4066 59.3711 69.434 57.3437 69.434 54.8428C69.434 52.3419 67.4066 50.3145 64.9057 50.3145C62.4048 50.3145 60.3774 52.3419 60.3774 54.8428C60.3774 57.3437 62.4048 59.3711 64.9057 59.3711Z" fill="current"/>
<path d="M74.9686 59.3711C77.4695 59.3711 79.4969 57.3437 79.4969 54.8428C79.4969 52.3419 77.4695 50.3145 74.9686 50.3145C72.4676 50.3145 70.4403 52.3419 70.4403 54.8428C70.4403 57.3437 72.4676 59.3711 74.9686 59.3711Z" fill="current"/>
<path d="M85.0315 59.3711C87.5324 59.3711 89.5598 57.3437 89.5598 54.8428C89.5598 52.3419 87.5324 50.3145 85.0315 50.3145C82.5305 50.3145 80.5031 52.3419 80.5031 54.8428C80.5031 57.3437 82.5305 59.3711 85.0315 59.3711Z" fill="current"/>
<path d="M95.0943 59.3711C97.5953 59.3711 99.6226 57.3437 99.6226 54.8428C99.6226 52.3419 97.5953 50.3145 95.0943 50.3145C92.5934 50.3145 90.566 52.3419 90.566 54.8428C90.566 57.3437 92.5934 59.3711 95.0943 59.3711Z" fill="current"/>
<path d="M105.157 59.3711C107.658 59.3711 109.686 57.3437 109.686 54.8428C109.686 52.3419 107.658 50.3145 105.157 50.3145C102.656 50.3145 100.629 52.3419 100.629 54.8428C100.629 57.3437 102.656 59.3711 105.157 59.3711Z" fill="current"/>
<path d="M115.22 59.3711C117.721 59.3711 119.748 57.3437 119.748 54.8428C119.748 52.3419 117.721 50.3145 115.22 50.3145C112.719 50.3145 110.692 52.3419 110.692 54.8428C110.692 57.3437 112.719 59.3711 115.22 59.3711Z" fill="current"/>
<path d="M125.283 59.3711C127.784 59.3711 129.811 57.3437 129.811 54.8428C129.811 52.3419 127.784 50.3145 125.283 50.3145C122.782 50.3145 120.755 52.3419 120.755 54.8428C120.755 57.3437 122.782 59.3711 125.283 59.3711Z" fill="current"/>
<path d="M135.346 59.3711C137.847 59.3711 139.874 57.3437 139.874 54.8428C139.874 52.3419 137.847 50.3145 135.346 50.3145C132.845 50.3145 130.818 52.3419 130.818 54.8428C130.818 57.3437 132.845 59.3711 135.346 59.3711Z" fill="current"/>
<path d="M145.409 59.3711C147.91 59.3711 149.937 57.3437 149.937 54.8428C149.937 52.3419 147.91 50.3145 145.409 50.3145C142.908 50.3145 140.881 52.3419 140.881 54.8428C140.881 57.3437 142.908 59.3711 145.409 59.3711Z" fill="current"/>
<path d="M155.472 59.3711C157.973 59.3711 160 57.3437 160 54.8428C160 52.3419 157.973 50.3145 155.472 50.3145C152.971 50.3145 150.943 52.3419 150.943 54.8428C150.943 57.3437 152.971 59.3711 155.472 59.3711Z" fill="current"/>
<path d="M4.5283 69.434C7.02921 69.434 9.0566 67.4066 9.0566 64.9057C9.0566 62.4048 7.02921 60.3774 4.5283 60.3774C2.02739 60.3774 0 62.4048 0 64.9057C0 67.4066 2.02739 69.434 4.5283 69.434Z" fill="current"/>
<path d="M14.5912 69.434C17.0921 69.434 19.1195 67.4066 19.1195 64.9057C19.1195 62.4048 17.0921 60.3774 14.5912 60.3774C12.0903 60.3774 10.0629 62.4048 10.0629 64.9057C10.0629 67.4066 12.0903 69.434 14.5912 69.434Z" fill="current"/>
<path d="M24.6541 69.434C27.155 69.434 29.1824 67.4066 29.1824 64.9057C29.1824 62.4048 27.155 60.3774 24.6541 60.3774C22.1532 60.3774 20.1258 62.4048 20.1258 64.9057C20.1258 67.4066 22.1532 69.434 24.6541 69.434Z" fill="current"/>
<path d="M34.717 69.434C37.2179 69.434 39.2453 67.4066 39.2453 64.9057C39.2453 62.4048 37.2179 60.3774 34.717 60.3774C32.2161 60.3774 30.1887 62.4048 30.1887 64.9057C30.1887 67.4066 32.2161 69.434 34.717 69.434Z" fill="current"/>
<path d="M44.7799 69.434C47.2808 69.434 49.3082 67.4066 49.3082 64.9057C49.3082 62.4048 47.2808 60.3774 44.7799 60.3774C42.279 60.3774 40.2516 62.4048 40.2516 64.9057C40.2516 67.4066 42.279 69.434 44.7799 69.434Z" fill="current"/>
<path d="M54.8428 69.434C57.3437 69.434 59.3711 67.4066 59.3711 64.9057C59.3711 62.4048 57.3437 60.3774 54.8428 60.3774C52.3419 60.3774 50.3145 62.4048 50.3145 64.9057C50.3145 67.4066 52.3419 69.434 54.8428 69.434Z" fill="current"/>
<path d="M64.9057 69.434C67.4066 69.434 69.434 67.4066 69.434 64.9057C69.434 62.4048 67.4066 60.3774 64.9057 60.3774C62.4048 60.3774 60.3774 62.4048 60.3774 64.9057C60.3774 67.4066 62.4048 69.434 64.9057 69.434Z" fill="current"/>
<path d="M74.9686 69.434C77.4695 69.434 79.4969 67.4066 79.4969 64.9057C79.4969 62.4048 77.4695 60.3774 74.9686 60.3774C72.4676 60.3774 70.4403 62.4048 70.4403 64.9057C70.4403 67.4066 72.4676 69.434 74.9686 69.434Z" fill="current"/>
<path d="M85.0315 69.434C87.5324 69.434 89.5598 67.4066 89.5598 64.9057C89.5598 62.4048 87.5324 60.3774 85.0315 60.3774C82.5305 60.3774 80.5031 62.4048 80.5031 64.9057C80.5031 67.4066 82.5305 69.434 85.0315 69.434Z" fill="current"/>
<path d="M95.0943 69.434C97.5953 69.434 99.6226 67.4066 99.6226 64.9057C99.6226 62.4048 97.5953 60.3774 95.0943 60.3774C92.5934 60.3774 90.566 62.4048 90.566 64.9057C90.566 67.4066 92.5934 69.434 95.0943 69.434Z" fill="current"/>
<path d="M105.157 69.434C107.658 69.434 109.686 67.4066 109.686 64.9057C109.686 62.4048 107.658 60.3774 105.157 60.3774C102.656 60.3774 100.629 62.4048 100.629 64.9057C100.629 67.4066 102.656 69.434 105.157 69.434Z" fill="current"/>
<path d="M115.22 69.434C117.721 69.434 119.748 67.4066 119.748 64.9057C119.748 62.4048 117.721 60.3774 115.22 60.3774C112.719 60.3774 110.692 62.4048 110.692 64.9057C110.692 67.4066 112.719 69.434 115.22 69.434Z" fill="current"/>
<path d="M125.283 69.434C127.784 69.434 129.811 67.4066 129.811 64.9057C129.811 62.4048 127.784 60.3774 125.283 60.3774C122.782 60.3774 120.755 62.4048 120.755 64.9057C120.755 67.4066 122.782 69.434 125.283 69.434Z" fill="current"/>
<path d="M135.346 69.434C137.847 69.434 139.874 67.4066 139.874 64.9057C139.874 62.4048 137.847 60.3774 135.346 60.3774C132.845 60.3774 130.818 62.4048 130.818 64.9057C130.818 67.4066 132.845 69.434 135.346 69.434Z" fill="current"/>
<path d="M145.409 69.434C147.91 69.434 149.937 67.4066 149.937 64.9057C149.937 62.4048 147.91 60.3774 145.409 60.3774C142.908 60.3774 140.881 62.4048 140.881 64.9057C140.881 67.4066 142.908 69.434 145.409 69.434Z" fill="current"/>
<path d="M155.472 69.434C157.973 69.434 160 67.4066 160 64.9057C160 62.4048 157.973 60.3774 155.472 60.3774C152.971 60.3774 150.943 62.4048 150.943 64.9057C150.943 67.4066 152.971 69.434 155.472 69.434Z" fill="current"/>
<path d="M4.5283 79.4969C7.02921 79.4969 9.0566 77.4695 9.0566 74.9686C9.0566 72.4676 7.02921 70.4403 4.5283 70.4403C2.02739 70.4403 0 72.4676 0 74.9686C0 77.4695 2.02739 79.4969 4.5283 79.4969Z" fill="current"/>
<path d="M14.5912 79.4969C17.0921 79.4969 19.1195 77.4695 19.1195 74.9686C19.1195 72.4676 17.0921 70.4403 14.5912 70.4403C12.0903 70.4403 10.0629 72.4676 10.0629 74.9686C10.0629 77.4695 12.0903 79.4969 14.5912 79.4969Z" fill="current"/>
<path d="M24.6541 79.4969C27.155 79.4969 29.1824 77.4695 29.1824 74.9686C29.1824 72.4676 27.155 70.4403 24.6541 70.4403C22.1532 70.4403 20.1258 72.4676 20.1258 74.9686C20.1258 77.4695 22.1532 79.4969 24.6541 79.4969Z" fill="current"/>
<path d="M85.0315 79.4969C87.5324 79.4969 89.5598 77.4695 89.5598 74.9686C89.5598 72.4676 87.5324 70.4403 85.0315 70.4403C82.5305 70.4403 80.5031 72.4676 80.5031 74.9686C80.5031 77.4695 82.5305 79.4969 85.0315 79.4969Z" fill="current"/>
<path d="M95.0943 79.4969C97.5953 79.4969 99.6226 77.4695 99.6226 74.9686C99.6226 72.4676 97.5953 70.4403 95.0943 70.4403C92.5934 70.4403 90.566 72.4676 90.566 74.9686C90.566 77.4695 92.5934 79.4969 95.0943 79.4969Z" fill="current"/>
<path d="M145.409 79.4969C147.91 79.4969 149.937 77.4695 149.937 74.9686C149.937 72.4676 147.91 70.4403 145.409 70.4403C142.908 70.4403 140.881 72.4676 140.881 74.9686C140.881 77.4695 142.908 79.4969 145.409 79.4969Z" fill="current"/>
<path d="M155.472 79.4969C157.973 79.4969 160 77.4695 160 74.9686C160 72.4676 157.973 70.4403 155.472 70.4403C152.971 70.4403 150.943 72.4676 150.943 74.9686C150.943 77.4695 152.971 79.4969 155.472 79.4969Z" fill="current"/>
<path d="M4.5283 89.5598C7.02921 89.5598 9.0566 87.5324 9.0566 85.0315C9.0566 82.5305 7.02921 80.5031 4.5283 80.5031C2.02739 80.5031 0 82.5305 0 85.0315C0 87.5324 2.02739 89.5598 4.5283 89.5598Z" fill="current"/>
<path d="M14.5912 89.5598C17.0921 89.5598 19.1195 87.5324 19.1195 85.0315C19.1195 82.5305 17.0921 80.5031 14.5912 80.5031C12.0903 80.5031 10.0629 82.5305 10.0629 85.0315C10.0629 87.5324 12.0903 89.5598 14.5912 89.5598Z" fill="current"/>
<path d="M24.6541 89.5598C27.155 89.5598 29.1824 87.5324 29.1824 85.0315C29.1824 82.5305 27.155 80.5031 24.6541 80.5031C22.1532 80.5031 20.1258 82.5305 20.1258 85.0315C20.1258 87.5324 22.1532 89.5598 24.6541 89.5598Z" fill="current"/>
<path d="M34.717 89.5598C37.2179 89.5598 39.2453 87.5324 39.2453 85.0315C39.2453 82.5305 37.2179 80.5031 34.717 80.5031C32.2161 80.5031 30.1887 82.5305 30.1887 85.0315C30.1887 87.5324 32.2161 89.5598 34.717 89.5598Z" fill="current"/>
<path d="M44.7799 89.5598C47.2808 89.5598 49.3082 87.5324 49.3082 85.0315C49.3082 82.5305 47.2808 80.5031 44.7799 80.5031C42.279 80.5031 40.2516 82.5305 40.2516 85.0315C40.2516 87.5324 42.279 89.5598 44.7799 89.5598Z" fill="current"/>
<path d="M64.9057 89.5598C67.4066 89.5598 69.434 87.5324 69.434 85.0315C69.434 82.5305 67.4066 80.5031 64.9057 80.5031C62.4048 80.5031 60.3774 82.5305 60.3774 85.0315C60.3774 87.5324 62.4048 89.5598 64.9057 89.5598Z" fill="current"/>
<path d="M74.9686 89.5598C77.4695 89.5598 79.4969 87.5324 79.4969 85.0315C79.4969 82.5305 77.4695 80.5031 74.9686 80.5031C72.4676 80.5031 70.4403 82.5305 70.4403 85.0315C70.4403 87.5324 72.4676 89.5598 74.9686 89.5598Z" fill="current"/>
<path d="M85.0315 89.5598C87.5324 89.5598 89.5598 87.5324 89.5598 85.0315C89.5598 82.5305 87.5324 80.5031 85.0315 80.5031C82.5305 80.5031 80.5031 82.5305 80.5031 85.0315C80.5031 87.5324 82.5305 89.5598 85.0315 89.5598Z" fill="current"/>
<path d="M115.22 89.5598C117.721 89.5598 119.748 87.5324 119.748 85.0315C119.748 82.5305 117.721 80.5031 115.22 80.5031C112.719 80.5031 110.692 82.5305 110.692 85.0315C110.692 87.5324 112.719 89.5598 115.22 89.5598Z" fill="current"/>
<path d="M125.283 89.5598C127.784 89.5598 129.811 87.5324 129.811 85.0315C129.811 82.5305 127.784 80.5031 125.283 80.5031C122.782 80.5031 120.755 82.5305 120.755 85.0315C120.755 87.5324 122.782 89.5598 125.283 89.5598Z" fill="current"/>
<path d="M135.346 89.5598C137.847 89.5598 139.874 87.5324 139.874 85.0315C139.874 82.5305 137.847 80.5031 135.346 80.5031C132.845 80.5031 130.818 82.5305 130.818 85.0315C130.818 87.5324 132.845 89.5598 135.346 89.5598Z" fill="current"/>
<path d="M145.409 89.5598C147.91 89.5598 149.937 87.5324 149.937 85.0315C149.937 82.5305 147.91 80.5031 145.409 80.5031C142.908 80.5031 140.881 82.5305 140.881 85.0315C140.881 87.5324 142.908 89.5598 145.409 89.5598Z" fill="current"/>
<path d="M155.472 89.5598C157.973 89.5598 160 87.5324 160 85.0315C160 82.5305 157.973 80.5031 155.472 80.5031C152.971 80.5031 150.943 82.5305 150.943 85.0315C150.943 87.5324 152.971 89.5598 155.472 89.5598Z" fill="current"/>
<path d="M4.5283 99.6226C7.02921 99.6226 9.0566 97.5953 9.0566 95.0943C9.0566 92.5934 7.02921 90.566 4.5283 90.566C2.02739 90.566 0 92.5934 0 95.0943C0 97.5953 2.02739 99.6226 4.5283 99.6226Z" fill="current"/>
<path d="M14.5912 99.6226C17.0921 99.6226 19.1195 97.5953 19.1195 95.0943C19.1195 92.5934 17.0921 90.566 14.5912 90.566C12.0903 90.566 10.0629 92.5934 10.0629 95.0943C10.0629 97.5953 12.0903 99.6226 14.5912 99.6226Z" fill="current"/>
<path d="M24.6541 99.6226C27.155 99.6226 29.1824 97.5953 29.1824 95.0943C29.1824 92.5934 27.155 90.566 24.6541 90.566C22.1532 90.566 20.1258 92.5934 20.1258 95.0943C20.1258 97.5953 22.1532 99.6226 24.6541 99.6226Z" fill="current"/>
<path d="M34.717 99.6226C37.2179 99.6226 39.2453 97.5953 39.2453 95.0943C39.2453 92.5934 37.2179 90.566 34.717 90.566C32.2161 90.566 30.1887 92.5934 30.1887 95.0943C30.1887 97.5953 32.2161 99.6226 34.717 99.6226Z" fill="current"/>
<path d="M44.7799 99.6226C47.2808 99.6226 49.3082 97.5953 49.3082 95.0943C49.3082 92.5934 47.2808 90.566 44.7799 90.566C42.279 90.566 40.2516 92.5934 40.2516 95.0943C40.2516 97.5953 42.279 99.6226 44.7799 99.6226Z" fill="current"/>
<path d="M64.9057 99.6226C67.4066 99.6226 69.434 97.5953 69.434 95.0943C69.434 92.5934 67.4066 90.566 64.9057 90.566C62.4048 90.566 60.3774 92.5934 60.3774 95.0943C60.3774 97.5953 62.4048 99.6226 64.9057 99.6226Z" fill="current"/>
<path d="M74.9686 99.6226C77.4695 99.6226 79.4969 97.5953 79.4969 95.0943C79.4969 92.5934 77.4695 90.566 74.9686 90.566C72.4676 90.566 70.4403 92.5934 70.4403 95.0943C70.4403 97.5953 72.4676 99.6226 74.9686 99.6226Z" fill="current"/>
<path d="M85.0315 99.6226C87.5324 99.6226 89.5598 97.5953 89.5598 95.0943C89.5598 92.5934 87.5324 90.566 85.0315 90.566C82.5305 90.566 80.5031 92.5934 80.5031 95.0943C80.5031 97.5953 82.5305 99.6226 85.0315 99.6226Z" fill="current"/>
<path d="M115.22 99.6226C117.721 99.6226 119.748 97.5953 119.748 95.0943C119.748 92.5934 117.721 90.566 115.22 90.566C112.719 90.566 110.692 92.5934 110.692 95.0943C110.692 97.5953 112.719 99.6226 115.22 99.6226Z" fill="current"/>
<path d="M125.283 99.6226C127.784 99.6226 129.811 97.5953 129.811 95.0943C129.811 92.5934 127.784 90.566 125.283 90.566C122.782 90.566 120.755 92.5934 120.755 95.0943C120.755 97.5953 122.782 99.6226 125.283 99.6226Z" fill="current"/>
<path d="M135.346 99.6226C137.847 99.6226 139.874 97.5953 139.874 95.0943C139.874 92.5934 137.847 90.566 135.346 90.566C132.845 90.566 130.818 92.5934 130.818 95.0943C130.818 97.5953 132.845 99.6226 135.346 99.6226Z" fill="current"/>
<path d="M145.409 99.6226C147.91 99.6226 149.937 97.5953 149.937 95.0943C149.937 92.5934 147.91 90.566 145.409 90.566C142.908 90.566 140.881 92.5934 140.881 95.0943C140.881 97.5953 142.908 99.6226 145.409 99.6226Z" fill="current"/>
<path d="M155.472 99.6226C157.973 99.6226 160 97.5953 160 95.0943C160 92.5934 157.973 90.566 155.472 90.566C152.971 90.566 150.943 92.5934 150.943 95.0943C150.943 97.5953 152.971 99.6226 155.472 99.6226Z" fill="current"/>
<path d="M4.5283 109.686C7.02921 109.686 9.0566 107.658 9.0566 105.157C9.0566 102.656 7.02921 100.629 4.5283 100.629C2.02739 100.629 0 102.656 0 105.157C0 107.658 2.02739 109.686 4.5283 109.686Z" fill="current"/>
<path d="M14.5912 109.686C17.0921 109.686 19.1195 107.658 19.1195 105.157C19.1195 102.656 17.0921 100.629 14.5912 100.629C12.0903 100.629 10.0629 102.656 10.0629 105.157C10.0629 107.658 12.0903 109.686 14.5912 109.686Z" fill="current"/>
<path d="M24.6541 109.686C27.155 109.686 29.1824 107.658 29.1824 105.157C29.1824 102.656 27.155 100.629 24.6541 100.629C22.1532 100.629 20.1258 102.656 20.1258 105.157C20.1258 107.658 22.1532 109.686 24.6541 109.686Z" fill="current"/>
<path d="M34.717 109.686C37.2179 109.686 39.2453 107.658 39.2453 105.157C39.2453 102.656 37.2179 100.629 34.717 100.629C32.2161 100.629 30.1887 102.656 30.1887 105.157C30.1887 107.658 32.2161 109.686 34.717 109.686Z" fill="current"/>
<path d="M44.7799 109.686C47.2808 109.686 49.3082 107.658 49.3082 105.157C49.3082 102.656 47.2808 100.629 44.7799 100.629C42.279 100.629 40.2516 102.656 40.2516 105.157C40.2516 107.658 42.279 109.686 44.7799 109.686Z" fill="current"/>
<path d="M64.9057 109.686C67.4066 109.686 69.434 107.658 69.434 105.157C69.434 102.656 67.4066 100.629 64.9057 100.629C62.4048 100.629 60.3774 102.656 60.3774 105.157C60.3774 107.658 62.4048 109.686 64.9057 109.686Z" fill="current"/>
<path d="M74.9686 109.686C77.4695 109.686 79.4969 107.658 79.4969 105.157C79.4969 102.656 77.4695 100.629 74.9686 100.629C72.4676 100.629 70.4403 102.656 70.4403 105.157C70.4403 107.658 72.4676 109.686 74.9686 109.686Z" fill="current"/>
<path d="M85.0315 109.686C87.5324 109.686 89.5598 107.658 89.5598 105.157C89.5598 102.656 87.5324 100.629 85.0315 100.629C82.5305 100.629 80.5031 102.656 80.5031 105.157C80.5031 107.658 82.5305 109.686 85.0315 109.686Z" fill="current"/>
<path d="M95.0943 109.686C97.5953 109.686 99.6226 107.658 99.6226 105.157C99.6226 102.656 97.5953 100.629 95.0943 100.629C92.5934 100.629 90.566 102.656 90.566 105.157C90.566 107.658 92.5934 109.686 95.0943 109.686Z" fill="current"/>
<path d="M135.346 109.686C137.847 109.686 139.874 107.658 139.874 105.157C139.874 102.656 137.847 100.629 135.346 100.629C132.845 100.629 130.818 102.656 130.818 105.157C130.818 107.658 132.845 109.686 135.346 109.686Z" fill="current"/>
<path d="M145.409 109.686C147.91 109.686 149.937 107.658 149.937 105.157C149.937 102.656 147.91 100.629 145.409 100.629C142.908 100.629 140.881 102.656 140.881 105.157C140.881 107.658 142.908 109.686 145.409 109.686Z" fill="current"/>
<path d="M155.472 109.686C157.973 109.686 160 107.658 160 105.157C160 102.656 157.973 100.629 155.472 100.629C152.971 100.629 150.943 102.656 150.943 105.157C150.943 107.658 152.971 109.686 155.472 109.686Z" fill="current"/>
<path d="M4.5283 119.748C7.02921 119.748 9.0566 117.721 9.0566 115.22C9.0566 112.719 7.02921 110.692 4.5283 110.692C2.02739 110.692 0 112.719 0 115.22C0 117.721 2.02739 119.748 4.5283 119.748Z" fill="current"/>
<path d="M14.5912 119.748C17.0921 119.748 19.1195 117.721 19.1195 115.22C19.1195 112.719 17.0921 110.692 14.5912 110.692C12.0903 110.692 10.0629 112.719 10.0629 115.22C10.0629 117.721 12.0903 119.748 14.5912 119.748Z" fill="current"/>
<path d="M24.6541 119.748C27.155 119.748 29.1824 117.721 29.1824 115.22C29.1824 112.719 27.155 110.692 24.6541 110.692C22.1532 110.692 20.1258 112.719 20.1258 115.22C20.1258 117.721 22.1532 119.748 24.6541 119.748Z" fill="current"/>
<path d="M34.717 119.748C37.2179 119.748 39.2453 117.721 39.2453 115.22C39.2453 112.719 37.2179 110.692 34.717 110.692C32.2161 110.692 30.1887 112.719 30.1887 115.22C30.1887 117.721 32.2161 119.748 34.717 119.748Z" fill="current"/>
<path d="M44.7799 119.748C47.2808 119.748 49.3082 117.721 49.3082 115.22C49.3082 112.719 47.2808 110.692 44.7799 110.692C42.279 110.692 40.2516 112.719 40.2516 115.22C40.2516 117.721 42.279 119.748 44.7799 119.748Z" fill="current"/>
<path d="M64.9057 119.748C67.4066 119.748 69.434 117.721 69.434 115.22C69.434 112.719 67.4066 110.692 64.9057 110.692C62.4048 110.692 60.3774 112.719 60.3774 115.22C60.3774 117.721 62.4048 119.748 64.9057 119.748Z" fill="current"/>
<path d="M74.9686 119.748C77.4695 119.748 79.4969 117.721 79.4969 115.22C79.4969 112.719 77.4695 110.692 74.9686 110.692C72.4676 110.692 70.4403 112.719 70.4403 115.22C70.4403 117.721 72.4676 119.748 74.9686 119.748Z" fill="current"/>
<path d="M85.0315 119.748C87.5324 119.748 89.5598 117.721 89.5598 115.22C89.5598 112.719 87.5324 110.692 85.0315 110.692C82.5305 110.692 80.5031 112.719 80.5031 115.22C80.5031 117.721 82.5305 119.748 85.0315 119.748Z" fill="current"/>
<path d="M95.0943 119.748C97.5953 119.748 99.6226 117.721 99.6226 115.22C99.6226 112.719 97.5953 110.692 95.0943 110.692C92.5934 110.692 90.566 112.719 90.566 115.22C90.566 117.721 92.5934 119.748 95.0943 119.748Z" fill="current"/>
<path d="M105.157 119.748C107.658 119.748 109.686 117.721 109.686 115.22C109.686 112.719 107.658 110.692 105.157 110.692C102.656 110.692 100.629 112.719 100.629 115.22C100.629 117.721 102.656 119.748 105.157 119.748Z" fill="current"/>
<path d="M115.22 119.748C117.721 119.748 119.748 117.721 119.748 115.22C119.748 112.719 117.721 110.692 115.22 110.692C112.719 110.692 110.692 112.719 110.692 115.22C110.692 117.721 112.719 119.748 115.22 119.748Z" fill="current"/>
<path d="M145.409 119.748C147.91 119.748 149.937 117.721 149.937 115.22C149.937 112.719 147.91 110.692 145.409 110.692C142.908 110.692 140.881 112.719 140.881 115.22C140.881 117.721 142.908 119.748 145.409 119.748Z" fill="current"/>
<path d="M155.472 119.748C157.973 119.748 160 117.721 160 115.22C160 112.719 157.973 110.692 155.472 110.692C152.971 110.692 150.943 112.719 150.943 115.22C150.943 117.721 152.971 119.748 155.472 119.748Z" fill="current"/>
<path d="M4.5283 129.811C7.02921 129.811 9.0566 127.784 9.0566 125.283C9.0566 122.782 7.02921 120.755 4.5283 120.755C2.02739 120.755 0 122.782 0 125.283C0 127.784 2.02739 129.811 4.5283 129.811Z" fill="current"/>
<path d="M14.5912 129.811C17.0921 129.811 19.1195 127.784 19.1195 125.283C19.1195 122.782 17.0921 120.755 14.5912 120.755C12.0903 120.755 10.0629 122.782 10.0629 125.283C10.0629 127.784 12.0903 129.811 14.5912 129.811Z" fill="current"/>
<path d="M24.6541 129.811C27.155 129.811 29.1824 127.784 29.1824 125.283C29.1824 122.782 27.155 120.755 24.6541 120.755C22.1532 120.755 20.1258 122.782 20.1258 125.283C20.1258 127.784 22.1532 129.811 24.6541 129.811Z" fill="current"/>
<path d="M34.717 129.811C37.2179 129.811 39.2453 127.784 39.2453 125.283C39.2453 122.782 37.2179 120.755 34.717 120.755C32.2161 120.755 30.1887 122.782 30.1887 125.283C30.1887 127.784 32.2161 129.811 34.717 129.811Z" fill="current"/>
<path d="M44.7799 129.811C47.2808 129.811 49.3082 127.784 49.3082 125.283C49.3082 122.782 47.2808 120.755 44.7799 120.755C42.279 120.755 40.2516 122.782 40.2516 125.283C40.2516 127.784 42.279 129.811 44.7799 129.811Z" fill="current"/>
<path d="M64.9057 129.811C67.4066 129.811 69.434 127.784 69.434 125.283C69.434 122.782 67.4066 120.755 64.9057 120.755C62.4048 120.755 60.3774 122.782 60.3774 125.283C60.3774 127.784 62.4048 129.811 64.9057 129.811Z" fill="current"/>
<path d="M74.9686 129.811C77.4695 129.811 79.4969 127.784 79.4969 125.283C79.4969 122.782 77.4695 120.755 74.9686 120.755C72.4676 120.755 70.4403 122.782 70.4403 125.283C70.4403 127.784 72.4676 129.811 74.9686 129.811Z" fill="current"/>
<path d="M85.0315 129.811C87.5324 129.811 89.5598 127.784 89.5598 125.283C89.5598 122.782 87.5324 120.755 85.0315 120.755C82.5305 120.755 80.5031 122.782 80.5031 125.283C80.5031 127.784 82.5305 129.811 85.0315 129.811Z" fill="current"/>
<path d="M95.0943 129.811C97.5953 129.811 99.6226 127.784 99.6226 125.283C99.6226 122.782 97.5953 120.755 95.0943 120.755C92.5934 120.755 90.566 122.782 90.566 125.283C90.566 127.784 92.5934 129.811 95.0943 129.811Z" fill="current"/>
<path d="M105.157 129.811C107.658 129.811 109.686 127.784 109.686 125.283C109.686 122.782 107.658 120.755 105.157 120.755C102.656 120.755 100.629 122.782 100.629 125.283C100.629 127.784 102.656 129.811 105.157 129.811Z" fill="current"/>
<path d="M115.22 129.811C117.721 129.811 119.748 127.784 119.748 125.283C119.748 122.782 117.721 120.755 115.22 120.755C112.719 120.755 110.692 122.782 110.692 125.283C110.692 127.784 112.719 129.811 115.22 129.811Z" fill="current"/>
<path d="M145.409 129.811C147.91 129.811 149.937 127.784 149.937 125.283C149.937 122.782 147.91 120.755 145.409 120.755C142.908 120.755 140.881 122.782 140.881 125.283C140.881 127.784 142.908 129.811 145.409 129.811Z" fill="current"/>
<path d="M155.472 129.811C157.973 129.811 160 127.784 160 125.283C160 122.782 157.973 120.755 155.472 120.755C152.971 120.755 150.943 122.782 150.943 125.283C150.943 127.784 152.971 129.811 155.472 129.811Z" fill="current"/>
<path d="M4.5283 139.874C7.02921 139.874 9.0566 137.847 9.0566 135.346C9.0566 132.845 7.02921 130.818 4.5283 130.818C2.02739 130.818 0 132.845 0 135.346C0 137.847 2.02739 139.874 4.5283 139.874Z" fill="current"/>
<path d="M14.5912 139.874C17.0921 139.874 19.1195 137.847 19.1195 135.346C19.1195 132.845 17.0921 130.818 14.5912 130.818C12.0903 130.818 10.0629 132.845 10.0629 135.346C10.0629 137.847 12.0903 139.874 14.5912 139.874Z" fill="current"/>
<path d="M24.6541 139.874C27.155 139.874 29.1824 137.847 29.1824 135.346C29.1824 132.845 27.155 130.818 24.6541 130.818C22.1532 130.818 20.1258 132.845 20.1258 135.346C20.1258 137.847 22.1532 139.874 24.6541 139.874Z" fill="current"/>
<path d="M34.717 139.874C37.2179 139.874 39.2453 137.847 39.2453 135.346C39.2453 132.845 37.2179 130.818 34.717 130.818C32.2161 130.818 30.1887 132.845 30.1887 135.346C30.1887 137.847 32.2161 139.874 34.717 139.874Z" fill="current"/>
<path d="M44.7799 139.874C47.2808 139.874 49.3082 137.847 49.3082 135.346C49.3082 132.845 47.2808 130.818 44.7799 130.818C42.279 130.818 40.2516 132.845 40.2516 135.346C40.2516 137.847 42.279 139.874 44.7799 139.874Z" fill="current"/>
<path d="M64.9057 139.874C67.4066 139.874 69.434 137.847 69.434 135.346C69.434 132.845 67.4066 130.818 64.9057 130.818C62.4048 130.818 60.3774 132.845 60.3774 135.346C60.3774 137.847 62.4048 139.874 64.9057 139.874Z" fill="current"/>
<path d="M74.9686 139.874C77.4695 139.874 79.4969 137.847 79.4969 135.346C79.4969 132.845 77.4695 130.818 74.9686 130.818C72.4676 130.818 70.4403 132.845 70.4403 135.346C70.4403 137.847 72.4676 139.874 74.9686 139.874Z" fill="current"/>
<path d="M85.0315 139.874C87.5324 139.874 89.5598 137.847 89.5598 135.346C89.5598 132.845 87.5324 130.818 85.0315 130.818C82.5305 130.818 80.5031 132.845 80.5031 135.346C80.5031 137.847 82.5305 139.874 85.0315 139.874Z" fill="current"/>
<path d="M135.346 139.874C137.847 139.874 139.874 137.847 139.874 135.346C139.874 132.845 137.847 130.818 135.346 130.818C132.845 130.818 130.818 132.845 130.818 135.346C130.818 137.847 132.845 139.874 135.346 139.874Z" fill="current"/>
<path d="M145.409 139.874C147.91 139.874 149.937 137.847 149.937 135.346C149.937 132.845 147.91 130.818 145.409 130.818C142.908 130.818 140.881 132.845 140.881 135.346C140.881 137.847 142.908 139.874 145.409 139.874Z" fill="current"/>
<path d="M155.472 139.874C157.973 139.874 160 137.847 160 135.346C160 132.845 157.973 130.818 155.472 130.818C152.971 130.818 150.943 132.845 150.943 135.346C150.943 137.847 152.971 139.874 155.472 139.874Z" fill="current"/>
<path d="M4.5283 149.937C7.02921 149.937 9.0566 147.91 9.0566 145.409C9.0566 142.908 7.02921 140.881 4.5283 140.881C2.02739 140.881 0 142.908 0 145.409C0 147.91 2.02739 149.937 4.5283 149.937Z" fill="current"/>
<path d="M14.5912 149.937C17.0921 149.937 19.1195 147.91 19.1195 145.409C19.1195 142.908 17.0921 140.881 14.5912 140.881C12.0903 140.881 10.0629 142.908 10.0629 145.409C10.0629 147.91 12.0903 149.937 14.5912 149.937Z" fill="current"/>
<path d="M24.6541 149.937C27.155 149.937 29.1824 147.91 29.1824 145.409C29.1824 142.908 27.155 140.881 24.6541 140.881C22.1532 140.881 20.1258 142.908 20.1258 145.409C20.1258 147.91 22.1532 149.937 24.6541 149.937Z" fill="current"/>
<path d="M34.717 149.937C37.2179 149.937 39.2453 147.91 39.2453 145.409C39.2453 142.908 37.2179 140.881 34.717 140.881C32.2161 140.881 30.1887 142.908 30.1887 145.409C30.1887 147.91 32.2161 149.937 34.717 149.937Z" fill="current"/>
<path d="M44.7799 149.937C47.2808 149.937 49.3082 147.91 49.3082 145.409C49.3082 142.908 47.2808 140.881 44.7799 140.881C42.279 140.881 40.2516 142.908 40.2516 145.409C40.2516 147.91 42.279 149.937 44.7799 149.937Z" fill="current"/>
<path d="M54.8428 149.937C57.3437 149.937 59.3711 147.91 59.3711 145.409C59.3711 142.908 57.3437 140.881 54.8428 140.881C52.3419 140.881 50.3145 142.908 50.3145 145.409C50.3145 147.91 52.3419 149.937 54.8428 149.937Z" fill="current"/>
<path d="M64.9057 149.937C67.4066 149.937 69.434 147.91 69.434 145.409C69.434 142.908 67.4066 140.881 64.9057 140.881C62.4048 140.881 60.3774 142.908 60.3774 145.409C60.3774 147.91 62.4048 149.937 64.9057 149.937Z" fill="current"/>
<path d="M74.9686 149.937C77.4695 149.937 79.4969 147.91 79.4969 145.409C79.4969 142.908 77.4695 140.881 74.9686 140.881C72.4676 140.881 70.4403 142.908 70.4403 145.409C70.4403 147.91 72.4676 149.937 74.9686 149.937Z" fill="current"/>
<path d="M85.0315 149.937C87.5324 149.937 89.5598 147.91 89.5598 145.409C89.5598 142.908 87.5324 140.881 85.0315 140.881C82.5305 140.881 80.5031 142.908 80.5031 145.409C80.5031 147.91 82.5305 149.937 85.0315 149.937Z" fill="current"/>
<path d="M95.0943 149.937C97.5953 149.937 99.6226 147.91 99.6226 145.409C99.6226 142.908 97.5953 140.881 95.0943 140.881C92.5934 140.881 90.566 142.908 90.566 145.409C90.566 147.91 92.5934 149.937 95.0943 149.937Z" fill="current"/>
<path d="M105.157 149.937C107.658 149.937 109.686 147.91 109.686 145.409C109.686 142.908 107.658 140.881 105.157 140.881C102.656 140.881 100.629 142.908 100.629 145.409C100.629 147.91 102.656 149.937 105.157 149.937Z" fill="current"/>
<path d="M115.22 149.937C117.721 149.937 119.748 147.91 119.748 145.409C119.748 142.908 117.721 140.881 115.22 140.881C112.719 140.881 110.692 142.908 110.692 145.409C110.692 147.91 112.719 149.937 115.22 149.937Z" fill="current"/>
<path d="M125.283 149.937C127.784 149.937 129.811 147.91 129.811 145.409C129.811 142.908 127.784 140.881 125.283 140.881C122.782 140.881 120.755 142.908 120.755 145.409C120.755 147.91 122.782 149.937 125.283 149.937Z" fill="current"/>
<path d="M135.346 149.937C137.847 149.937 139.874 147.91 139.874 145.409C139.874 142.908 137.847 140.881 135.346 140.881C132.845 140.881 130.818 142.908 130.818 145.409C130.818 147.91 132.845 149.937 135.346 149.937Z" fill="current"/>
<path d="M145.409 149.937C147.91 149.937 149.937 147.91 149.937 145.409C149.937 142.908 147.91 140.881 145.409 140.881C142.908 140.881 140.881 142.908 140.881 145.409C140.881 147.91 142.908 149.937 145.409 149.937Z" fill="current"/>
<path d="M155.472 149.937C157.973 149.937 160 147.91 160 145.409C160 142.908 157.973 140.881 155.472 140.881C152.971 140.881 150.943 142.908 150.943 145.409C150.943 147.91 152.971 149.937 155.472 149.937Z" fill="current"/>
<path d="M14.5912 160C17.0921 160 19.1195 157.973 19.1195 155.472C19.1195 152.971 17.0921 150.943 14.5912 150.943C12.0903 150.943 10.0629 152.971 10.0629 155.472C10.0629 157.973 12.0903 160 14.5912 160Z" fill="current"/>
<path d="M24.6541 160C27.155 160 29.1824 157.973 29.1824 155.472C29.1824 152.971 27.155 150.943 24.6541 150.943C22.1532 150.943 20.1258 152.971 20.1258 155.472C20.1258 157.973 22.1532 160 24.6541 160Z" fill="current"/>
<path d="M34.717 160C37.2179 160 39.2453 157.973 39.2453 155.472C39.2453 152.971 37.2179 150.943 34.717 150.943C32.2161 150.943 30.1887 152.971 30.1887 155.472C30.1887 157.973 32.2161 160 34.717 160Z" fill="current"/>
<path d="M44.7799 160C47.2808 160 49.3082 157.973 49.3082 155.472C49.3082 152.971 47.2808 150.943 44.7799 150.943C42.279 150.943 40.2516 152.971 40.2516 155.472C40.2516 157.973 42.279 160 44.7799 160Z" fill="current"/>
<path d="M54.8428 160C57.3437 160 59.3711 157.973 59.3711 155.472C59.3711 152.971 57.3437 150.943 54.8428 150.943C52.3419 150.943 50.3145 152.971 50.3145 155.472C50.3145 157.973 52.3419 160 54.8428 160Z" fill="current"/>
<path d="M64.9057 160C67.4066 160 69.434 157.973 69.434 155.472C69.434 152.971 67.4066 150.943 64.9057 150.943C62.4048 150.943 60.3774 152.971 60.3774 155.472C60.3774 157.973 62.4048 160 64.9057 160Z" fill="current"/>
<path d="M74.9686 160C77.4695 160 79.4969 157.973 79.4969 155.472C79.4969 152.971 77.4695 150.943 74.9686 150.943C72.4676 150.943 70.4403 152.971 70.4403 155.472C70.4403 157.973 72.4676 160 74.9686 160Z" fill="current"/>
<path d="M85.0315 160C87.5324 160 89.5598 157.973 89.5598 155.472C89.5598 152.971 87.5324 150.943 85.0315 150.943C82.5305 150.943 80.5031 152.971 80.5031 155.472C80.5031 157.973 82.5305 160 85.0315 160Z" fill="current"/>
<path d="M95.0943 160C97.5953 160 99.6226 157.973 99.6226 155.472C99.6226 152.971 97.5953 150.943 95.0943 150.943C92.5934 150.943 90.566 152.971 90.566 155.472C90.566 157.973 92.5934 160 95.0943 160Z" fill="current"/>
<path d="M105.157 160C107.658 160 109.686 157.973 109.686 155.472C109.686 152.971 107.658 150.943 105.157 150.943C102.656 150.943 100.629 152.971 100.629 155.472C100.629 157.973 102.656 160 105.157 160Z" fill="current"/>
<path d="M115.22 160C117.721 160 119.748 157.973 119.748 155.472C119.748 152.971 117.721 150.943 115.22 150.943C112.719 150.943 110.692 152.971 110.692 155.472C110.692 157.973 112.719 160 115.22 160Z" fill="current"/>
<path d="M125.283 160C127.784 160 129.811 157.973 129.811 155.472C129.811 152.971 127.784 150.943 125.283 150.943C122.782 150.943 120.755 152.971 120.755 155.472C120.755 157.973 122.782 160 125.283 160Z" fill="current"/>
<path d="M135.346 160C137.847 160 139.874 157.973 139.874 155.472C139.874 152.971 137.847 150.943 135.346 150.943C132.845 150.943 130.818 152.971 130.818 155.472C130.818 157.973 132.845 160 135.346 160Z" fill="current"/>
<path d="M145.409 160C147.91 160 149.937 157.973 149.937 155.472C149.937 152.971 147.91 150.943 145.409 150.943C142.908 150.943 140.881 152.971 140.881 155.472C140.881 157.973 142.908 160 145.409 160Z" fill="current"/>
</svg>
